<?xml version="1.0" encoding="UTF-8" standalone="no"?>
<svg width="66px" height="101px" viewBox="0 0 66 101" version="1.1" xmlns="http://www.w3.org/2000/svg" xmlns:xlink="http://www.w3.org/1999/xlink">
    <!-- Generator: Sketch 48.2 (47327) - http://www.bohemiancoding.com/sketch -->
    <title>EDR_Logo_Vert_Rev</title>
    <desc>Created with Sketch.</desc>
    <defs></defs>
    <g id="Footer" stroke="none" stroke-width="1" fill="none" fill-rule="evenodd" transform="translate(-1224.000000, -208.000000)">
        <g fill="#FFFFFF" id="EDR_Logo_Vert_Rev">
            <g transform="translate(1224.000000, 208.000000)">
                <g>
                    <rect id="Rectangle-path" fill-rule="nonzero" x="0" y="60.8970588" width="62.5333333" height="1.48529412"></rect>
                    <g id="Group" fill-rule="nonzero">
                        <path d="M22.313183,72.8678049 L24.7267502,72.8678049 L24.7267502,73.7053659 L22.313183,73.7053659 L22.313183,76.2180488 L25.0222891,76.2180488 C25.2685714,76.2180488 25.4163409,76.2673171 25.5148538,76.3658537 C25.6133668,76.4643902 25.6626232,76.6121951 25.6626232,76.76 C25.6626232,76.8092683 25.6626232,76.8092683 25.6626232,76.8585366 C25.6626232,76.9078049 25.6626232,76.9078049 25.6626232,76.9078049 L25.6626232,77.0063415 L21.3773099,77.0063415 L21.3773099,69.862439 L25.5148538,69.862439 C25.5148538,69.9117073 25.5148538,69.9609756 25.5148538,69.9609756 L25.5148538,70.0595122 C25.5148538,70.2073171 25.4655973,70.355122 25.3670844,70.4536585 C25.2685714,70.5521951 25.120802,70.6014634 24.8745196,70.6014634 L22.313183,70.6014634 L22.313183,72.8678049 Z" id="Shape"></path>
                        <path d="M28.8642941,76.415122 C29.06132,76.415122 29.2090894,76.3658537 29.4061153,76.3165854 C29.5538847,76.2673171 29.7016541,76.1687805 29.8001671,76.1195122 C29.9479365,76.0209756 30.0464495,75.922439 30.1449624,75.8239024 C30.1942189,75.8731707 30.2927318,75.9717073 30.3419883,76.0702439 C30.4405013,76.1687805 30.4897577,76.3165854 30.4897577,76.415122 C30.4897577,76.5136585 30.3912448,76.6121951 30.2434754,76.76 C30.0957059,76.9078049 29.89868,77.0063415 29.6523977,77.0556098 C29.4061153,77.1541463 29.1105764,77.2034146 28.7165246,77.2034146 C28.4702423,77.2034146 28.2239599,77.1541463 27.9776775,77.104878 C27.6821387,77.0556098 27.4358563,76.9078049 27.1895739,76.7107317 C26.9432916,76.5136585 26.7462657,76.2673171 26.5984962,75.922439 C26.4507268,75.577561 26.3522139,75.1341463 26.3522139,74.5429268 C26.3522139,74.0009756 26.4507268,73.557561 26.5984962,73.2619512 C26.7955221,72.9170732 26.992548,72.6707317 27.2388304,72.4736585 C27.4851128,72.2765854 27.7806516,72.1287805 28.026934,72.0795122 C28.3224728,71.9809756 28.5687552,71.9809756 28.7657811,71.9809756 C29.0120635,71.9809756 29.2583459,72.0302439 29.4553718,72.0795122 C29.6523977,72.1287805 29.8494236,72.1780488 29.997193,72.2765854 C30.1449624,72.375122 30.2434754,72.4243902 30.3419883,72.5229268 C30.4405013,72.6214634 30.4405013,72.72 30.4405013,72.7692683 C30.4405013,72.8678049 30.3912448,72.9663415 30.3419883,73.064878 C30.2927318,73.1634146 30.2434754,73.2619512 30.1942189,73.3604878 L30.0957059,73.3604878 C29.997193,73.2126829 29.8001671,73.064878 29.6031412,72.9663415 C29.4061153,72.8185366 29.1598329,72.7692683 28.8150376,72.7692683 C28.5687552,72.7692683 28.3224728,72.8185366 28.125447,72.9170732 C27.9284211,73.0156098 27.7806516,73.1634146 27.6328822,73.3112195 C27.4851128,73.4590244 27.4358563,73.6560976 27.3373434,73.902439 C27.2880869,74.1487805 27.2388304,74.3458537 27.2388304,74.6414634 C27.2388304,74.8878049 27.2880869,75.1341463 27.3373434,75.3804878 C27.3865998,75.6268293 27.4851128,75.8239024 27.6328822,75.9717073 C27.7806516,76.1195122 27.9284211,76.2673171 28.125447,76.3658537 C28.3717293,76.3658537 28.5687552,76.415122 28.8642941,76.415122" id="Shape"></path>
                        <path d="M35.9079699,74.4936585 C35.9079699,74.8385366 35.8587135,75.1834146 35.7602005,75.5282927 C35.6616876,75.8731707 35.5139181,76.1195122 35.3661487,76.3658537 C35.1691228,76.6121951 34.9228404,76.8092683 34.6273016,76.9570732 C34.3317627,77.104878 33.9869674,77.2034146 33.5436591,77.2034146 C33.1003509,77.2034146 32.7555556,77.1541463 32.4600167,77.0063415 C32.1644779,76.8585366 31.9181955,76.6614634 31.7211696,76.415122 C31.5241437,76.1687805 31.3763743,75.8731707 31.3271178,75.577561 C31.2286048,75.2326829 31.1793484,74.9370732 31.1793484,74.5429268 C31.1793484,74.1980488 31.2286048,73.8531707 31.3271178,73.5082927 C31.4256307,73.1634146 31.5734002,72.9170732 31.7704261,72.6707317 C31.967452,72.4243902 32.2137343,72.2273171 32.5092732,72.0795122 C32.804812,71.9317073 33.1496074,71.882439 33.5436591,71.882439 C33.9869674,71.882439 34.3317627,71.9317073 34.6273016,72.0795122 C34.9228404,72.2273171 35.1691228,72.4243902 35.3661487,72.6707317 C35.5631746,72.9170732 35.710944,73.1634146 35.7602005,73.5082927 C35.8587135,73.8039024 35.9079699,74.1487805 35.9079699,74.4936585 M34.9228404,74.4936585 C34.9228404,74.2965854 34.9228404,74.0502439 34.873584,73.8531707 C34.8243275,73.6560976 34.775071,73.4590244 34.6765581,73.2619512 C34.5780451,73.064878 34.4302757,72.9663415 34.2825063,72.8185366 C34.0854804,72.72 33.8884545,72.6707317 33.5929156,72.6707317 C33.2973768,72.6707317 33.1003509,72.72 32.903325,72.8185366 C32.7062991,72.9170732 32.5585297,73.064878 32.4600167,73.2619512 C32.3615038,73.4590244 32.2629908,73.6560976 32.2137343,73.8531707 C32.1644779,74.0502439 32.1644779,74.2965854 32.1644779,74.4936585 C32.1644779,74.74 32.1644779,74.9370732 32.2137343,75.1834146 C32.2629908,75.4297561 32.3122473,75.6268293 32.4107602,75.7746341 C32.5092732,75.9717073 32.6570426,76.1195122 32.8540685,76.2180488 C33.0510944,76.3165854 33.2481203,76.415122 33.5436591,76.415122 C33.839198,76.415122 34.0854804,76.3658537 34.2332498,76.2180488 C34.4302757,76.1195122 34.5780451,75.9717073 34.6765581,75.7746341 C34.775071,75.577561 34.8243275,75.3804878 34.873584,75.1834146 C34.9228404,74.9370732 34.9228404,74.6907317 34.9228404,74.4936585" id="Shape"></path>
                        <path d="M37.2871512,71.9809756 C37.4349206,71.9809756 37.5826901,72.0302439 37.7304595,72.1287805 C37.8782289,72.2273171 37.9274854,72.375122 37.9767419,72.5721951 C38.1245113,72.4243902 38.3707937,72.2765854 38.6663325,72.1287805 C38.9618713,71.9809756 39.2574102,71.9317073 39.651462,71.9317073 C40.1440267,71.9317073 40.4888221,72.0302439 40.7843609,72.2765854 C41.0306433,72.4736585 41.2276692,72.7692683 41.2769256,73.064878 C41.3261821,73.2126829 41.3261821,73.3604878 41.3261821,73.557561 C41.3261821,73.7546341 41.3261821,73.902439 41.3261821,74.0502439 L41.3261821,77.104878 L40.4395656,77.104878 L40.4395656,74.0995122 C40.4395656,73.9517073 40.4395656,73.8531707 40.4395656,73.7053659 C40.4395656,73.557561 40.4395656,73.4590244 40.3903091,73.3604878 C40.3410526,73.1634146 40.2425397,73.0156098 40.0947703,72.9170732 C39.9470008,72.8185366 39.7007185,72.7692683 39.4051796,72.7692683 C39.0111278,72.7692683 38.6663325,72.8678049 38.4200501,73.0156098 C38.1737678,73.1634146 38.0752548,73.3604878 38.0752548,73.557561 L38.0752548,77.104878 L37.1886383,77.104878 L37.1886383,72.0302439 L37.2378947,72.0302439 C37.2378947,72.0302439 37.2871512,72.0302439 37.2871512,72.0302439 C37.2378947,71.9809756 37.2871512,71.9809756 37.2871512,71.9809756" id="Shape"></path>
                        <path d="M47.2369591,74.4936585 C47.2369591,74.8385366 47.1877026,75.1834146 47.0891896,75.5282927 C46.9906767,75.8731707 46.8429073,76.1195122 46.6951378,76.3658537 C46.4981119,76.6121951 46.2518296,76.8092683 45.9562907,76.9570732 C45.6607519,77.104878 45.3159566,77.2034146 44.8726483,77.2034146 C44.42934,77.2034146 44.0845447,77.1541463 43.7890058,77.0063415 C43.493467,76.8585366 43.2471846,76.6614634 43.0501587,76.415122 C42.8531328,76.1687805 42.7053634,75.8731707 42.6561069,75.577561 C42.557594,75.2326829 42.5083375,74.9370732 42.5083375,74.5429268 C42.5083375,74.1980488 42.557594,73.8531707 42.6561069,73.5082927 C42.7546199,73.1634146 42.9023893,72.9170732 43.0994152,72.6707317 C43.2964411,72.4243902 43.5427235,72.2273171 43.8382623,72.0795122 C44.1338012,71.9317073 44.4785965,71.882439 44.8726483,71.882439 C45.3159566,71.882439 45.6607519,71.9317073 45.9562907,72.0795122 C46.2518296,72.2273171 46.4981119,72.4243902 46.6951378,72.6707317 C46.8921637,72.9170732 47.0399332,73.1634146 47.0891896,73.5082927 C47.1877026,73.8039024 47.2369591,74.1487805 47.2369591,74.4936585 M46.301086,74.4936585 C46.301086,74.2965854 46.301086,74.0502439 46.2518296,73.8531707 C46.2025731,73.6560976 46.1533166,73.4590244 46.0548037,73.2619512 C45.9562907,73.064878 45.8085213,72.9663415 45.6607519,72.8185366 C45.463726,72.72 45.2667001,72.6707317 44.9711612,72.6707317 C44.6756224,72.6707317 44.4785965,72.72 44.2815706,72.8185366 C44.0845447,72.9170732 43.9367753,73.064878 43.8382623,73.2619512 C43.7397494,73.4590244 43.6412364,73.6560976 43.5919799,73.8531707 C43.5427235,74.0502439 43.5427235,74.2965854 43.5427235,74.4936585 C43.5427235,74.74 43.5427235,74.9370732 43.5919799,75.1834146 C43.6412364,75.4297561 43.6904929,75.6268293 43.7890058,75.7746341 C43.8875188,75.9717073 44.0352882,76.1195122 44.2323141,76.2180488 C44.42934,76.3165854 44.6263659,76.415122 44.9219048,76.415122 C45.2174436,76.415122 45.463726,76.3658537 45.6114954,76.2180488 C45.8085213,76.1195122 45.9562907,75.9717073 46.0548037,75.7746341 C46.1533166,75.577561 46.2025731,75.3804878 46.2518296,75.1834146 C46.2518296,74.9370732 46.301086,74.6907317 46.301086,74.4936585" id="Shape"></path>
                        <path d="M50.9311947,71.882439 C51.177477,71.882439 51.4730159,71.9317073 51.7192982,72.0302439 C51.9655806,72.1287805 52.211863,72.3258537 52.3103759,72.5229268 C52.4581454,72.3258537 52.7044277,72.1780488 52.9999666,72.0795122 C53.2955054,71.9317073 53.5910443,71.882439 53.9850961,71.882439 C54.4284043,71.882439 54.8224561,71.9809756 55.0687385,72.2273171 C55.3150209,72.4243902 55.5120468,72.72 55.5613033,73.0156098 C55.6105597,73.1634146 55.6105597,73.3112195 55.6105597,73.5082927 C55.6105597,73.7053659 55.6105597,73.8531707 55.6105597,74.0009756 L55.6105597,77.0556098 L54.7239432,77.0556098 L54.7239432,74.0502439 C54.7239432,73.902439 54.7239432,73.8039024 54.7239432,73.6560976 C54.7239432,73.5082927 54.7239432,73.4097561 54.6746867,73.3112195 C54.6254302,73.1141463 54.5269173,72.9663415 54.3791479,72.8678049 C54.2313784,72.7692683 53.9850961,72.72 53.6895572,72.72 C53.4432749,72.72 53.246249,72.7692683 53.0492231,72.8678049 C52.8521972,72.9663415 52.7044277,73.064878 52.6059148,73.2126829 C52.6059148,73.3112195 52.6551713,73.4590244 52.6551713,73.6068293 C52.6551713,73.7546341 52.6551713,73.8531707 52.6551713,74.0009756 L52.6551713,77.0556098 L51.7685547,77.0556098 L51.7685547,74.0502439 C51.7685547,73.902439 51.7685547,73.7546341 51.7685547,73.6068293 C51.7685547,73.4590244 51.7192982,73.3604878 51.6700418,73.2619512 C51.5715288,72.9170732 51.2267335,72.72 50.6849123,72.72 C50.5371429,72.72 50.3893734,72.72 50.241604,72.7692683 C50.0938346,72.8185366 49.9460652,72.8678049 49.8475522,72.9663415 C49.7490393,73.0156098 49.6505263,73.1141463 49.5520134,73.2126829 C49.5027569,73.3112195 49.4535004,73.4097561 49.4535004,73.4590244 L49.4535004,77.0556098 L48.5668839,77.0556098 L48.5668839,71.9809756 L48.6161404,71.9809756 C48.6161404,71.9809756 48.6653968,71.9809756 48.6653968,71.9809756 C48.7146533,71.9809756 48.7146533,71.9809756 48.7146533,71.9809756 C48.9116792,71.9809756 49.0594486,72.0302439 49.1579616,72.1287805 C49.2564745,72.2273171 49.3549875,72.375122 49.3549875,72.5229268 C49.5027569,72.375122 49.7490393,72.2273171 49.9953216,72.0795122 C50.241604,71.9317073 50.5863993,71.882439 50.9311947,71.882439" id="Shape"></path>
                        <path d="M58.0733835,70.355122 C58.0733835,70.5029268 58.024127,70.6507317 57.925614,70.7492683 C57.8271011,70.8478049 57.6793317,70.8970732 57.5315622,70.8970732 C57.3837928,70.8970732 57.2360234,70.8478049 57.1375104,70.7492683 C57.0389975,70.6507317 56.989741,70.5029268 56.989741,70.355122 C56.989741,70.1580488 57.0389975,70.0102439 57.1375104,69.9117073 C57.2360234,69.8131707 57.3837928,69.7639024 57.5315622,69.7639024 C57.6793317,69.7639024 57.8271011,69.8131707 57.925614,69.9117073 C58.024127,70.0102439 58.0733835,70.1580488 58.0733835,70.355122 Z M57.088254,71.9317073 L57.1375104,71.9317073 C57.1375104,71.9317073 57.1867669,71.9317073 57.1867669,71.9317073 C57.1867669,71.9317073 57.2360234,71.9317073 57.2360234,71.9317073 C57.4330493,71.9317073 57.6300752,71.9809756 57.7285881,72.0795122 C57.8763576,72.1780488 57.925614,72.375122 57.925614,72.6214634 L57.925614,76.0209756 C57.925614,76.2180488 57.9748705,76.3658537 58.024127,76.4643902 C58.0733835,76.5629268 58.2211529,76.6121951 58.4674353,76.6121951 L58.4674353,77.0063415 C58.4181788,77.0063415 58.3196658,77.0556098 58.2211529,77.0556098 C58.1226399,77.0556098 58.024127,77.0556098 57.8763576,77.0556098 C57.6793317,77.0556098 57.5315622,77.0063415 57.3837928,76.9570732 C57.2852799,76.9078049 57.1867669,76.8092683 57.1375104,76.7107317 C57.088254,76.6121951 57.0389975,76.4643902 57.0389975,76.3658537 C57.0389975,76.2180488 57.0389975,76.1195122 57.0389975,75.9717073 L57.0389975,71.9317073 L57.088254,71.9317073 Z" id="Shape"></path>
                        <path d="M61.7183626,76.415122 C61.9153885,76.415122 62.0631579,76.3658537 62.2601838,76.3165854 C62.4079532,76.2673171 62.5557226,76.1687805 62.6542356,76.1195122 C62.802005,76.0209756 62.900518,75.922439 62.9990309,75.8239024 C63.0482874,75.8731707 63.1468003,75.9717073 63.1960568,76.0702439 C63.2945698,76.1687805 63.3438262,76.3165854 63.3438262,76.415122 C63.3438262,76.5136585 63.2453133,76.6121951 63.0975439,76.76 C62.9497744,76.9078049 62.7527485,77.0063415 62.5064662,77.0556098 C62.2601838,77.1541463 61.9646449,77.2034146 61.5705931,77.2034146 C61.3243108,77.2034146 61.0780284,77.1541463 60.831746,77.104878 C60.5362072,77.0556098 60.2899248,76.9078049 60.0436424,76.7107317 C59.7973601,76.5136585 59.6003342,76.2673171 59.4525647,75.922439 C59.3047953,75.577561 59.2062824,75.1341463 59.2062824,74.5429268 C59.2062824,74.0009756 59.3047953,73.557561 59.4525647,73.2619512 C59.6003342,72.9170732 59.8466165,72.6707317 60.0928989,72.4736585 C60.3391813,72.2765854 60.5854637,72.1287805 60.8810025,72.0795122 C61.1765414,71.9809756 61.4228237,71.9809756 61.6198496,71.9809756 C61.866132,71.9809756 62.1124144,72.0302439 62.3094403,72.0795122 C62.5064662,72.1287805 62.7034921,72.1780488 62.8512615,72.2765854 C62.9990309,72.375122 63.0975439,72.4243902 63.1960568,72.5229268 C63.2945698,72.6214634 63.2945698,72.72 63.2945698,72.7692683 C63.2945698,72.8678049 63.2453133,72.9663415 63.1960568,73.064878 C63.1468003,73.1634146 63.0975439,73.2619512 63.0482874,73.3604878 L62.9497744,73.3604878 C62.8512615,73.2126829 62.6542356,73.064878 62.4572097,72.9663415 C62.2601838,72.8185366 62.0139014,72.7692683 61.6691061,72.7692683 C61.4228237,72.7692683 61.1765414,72.8185366 60.9795155,72.9170732 C60.7824896,73.0156098 60.6347201,73.1634146 60.4869507,73.3112195 C60.3391813,73.4590244 60.2899248,73.6560976 60.1914119,73.902439 C60.1421554,74.1487805 60.0928989,74.3458537 60.0928989,74.6414634 C60.0928989,74.8878049 60.1421554,75.1341463 60.1914119,75.3804878 C60.2406683,75.6268293 60.3391813,75.8239024 60.4869507,75.9717073 C60.6347201,76.1195122 60.7824896,76.2673171 60.9795155,76.3658537 C61.2257978,76.3658537 61.4720802,76.415122 61.7183626,76.415122" id="Shape"></path>
                        <path d="M10.5408855,83.657561 C10.5408855,84.2980488 10.4423726,84.8892683 10.2453467,85.4312195 C10.0483208,85.9731707 9.70352548,86.4165854 9.26021721,86.7614634 C8.96467836,86.9585366 8.66913952,87.1063415 8.27508772,87.204878 C7.88103592,87.3034146 7.43772765,87.3526829 6.89590643,87.3526829 L5.2211863,87.3526829 L5.2211863,80.2087805 C5.6152381,80.1595122 5.91077694,80.1595122 6.20631579,80.1102439 C6.50185464,80.1102439 6.74813701,80.1102439 6.99441938,80.1102439 C7.68401003,80.1102439 8.22583124,80.2087805 8.71839599,80.4058537 C9.16170426,80.6029268 9.55575606,80.8492683 9.80203843,81.144878 C10.0975773,81.4897561 10.2946032,81.8346341 10.3931161,82.2780488 C10.4916291,82.7214634 10.5408855,83.164878 10.5408855,83.657561 M9.55575606,83.7068293 C9.55575606,83.3126829 9.50649958,82.9185366 9.45724311,82.5736585 C9.35873016,82.2287805 9.26021721,81.9331707 9.06319131,81.6868293 C8.86616541,81.4404878 8.61988304,81.2434146 8.27508772,81.0956098 C7.9302924,80.9478049 7.5362406,80.8985366 7.04367586,80.8985366 C6.89590643,80.8985366 6.74813701,80.8985366 6.60036759,80.8985366 C6.45259816,80.8985366 6.30482874,80.8985366 6.15705931,80.9478049 L6.15705931,86.515122 L7.04367586,86.515122 C7.5362406,86.515122 7.9302924,86.4165854 8.27508772,86.2687805 C8.61988304,86.1209756 8.86616541,85.9239024 9.06319131,85.677561 C9.26021721,85.4312195 9.40798663,85.1356098 9.50649958,84.7907317 C9.55575606,84.495122 9.55575606,84.1009756 9.55575606,83.7068293" id="Shape"></path>
                        <path d="M14.0873517,86.7614634 C14.2843776,86.7614634 14.4814035,86.7614634 14.6291729,86.7121951 C14.7769424,86.6629268 14.9247118,86.6136585 15.0232247,86.5643902 C15.1217377,86.515122 15.2202506,86.4165854 15.3187636,86.3673171 C15.4172765,86.3180488 15.466533,86.2195122 15.5157895,86.1702439 C15.6143024,86.2687805 15.6635589,86.3673171 15.7128154,86.515122 C15.7620718,86.6136585 15.8113283,86.7121951 15.8113283,86.7614634 C15.8113283,86.8107317 15.8113283,86.86 15.7620718,86.9585366 C15.7128154,87.0078049 15.6635589,87.1063415 15.5650459,87.1556098 C15.4172765,87.3034146 15.1709942,87.4019512 14.9247118,87.4512195 C14.6784294,87.5004878 14.3336341,87.5990244 13.9888388,87.5990244 C13.6440434,87.5990244 13.3485046,87.5497561 13.0529657,87.4512195 C12.7574269,87.3526829 12.5111445,87.204878 12.2648622,87.0078049 C12.0185798,86.8107317 11.8708104,86.515122 11.7230409,86.1702439 C11.5752715,85.8253659 11.526015,85.3819512 11.526015,84.8892683 C11.526015,84.4458537 11.5752715,84.0517073 11.7230409,83.7068293 C11.8708104,83.3619512 12.0185798,83.1156098 12.2648622,82.9185366 C12.4618881,82.7214634 12.7081704,82.5736585 13.0037093,82.475122 C13.2992481,82.3765854 13.5455305,82.3273171 13.8410693,82.3273171 C14.1858647,82.3273171 14.53066,82.3765854 14.7769424,82.5243902 C15.0232247,82.6229268 15.2695071,82.82 15.4172765,83.0170732 C15.5650459,83.2141463 15.7128154,83.4604878 15.7620718,83.7068293 C15.8605848,83.9531707 15.8605848,84.2487805 15.8605848,84.5443902 C15.8605848,84.6429268 15.8605848,84.7414634 15.8605848,84.84 C15.8605848,84.9385366 15.8605848,85.0370732 15.8113283,85.1356098 L12.4618881,85.1356098 C12.4618881,85.6282927 12.6096575,86.0717073 12.8559398,86.3673171 C13.2007352,86.5643902 13.594787,86.7614634 14.0873517,86.7614634 Z M15.0232247,84.3473171 C15.0232247,84.1502439 15.0232247,83.9531707 14.9739683,83.8053659 C14.9247118,83.657561 14.8754553,83.5097561 14.7769424,83.3619512 C14.6784294,83.2141463 14.5799165,83.1156098 14.432147,83.0663415 C14.2843776,83.0170732 14.0873517,82.9678049 13.8903258,82.9678049 C13.5455305,82.9678049 13.2007352,83.0663415 13.0037093,83.3126829 C12.7574269,83.5590244 12.6096575,83.9039024 12.6096575,84.2980488 L15.0232247,84.2980488 L15.0232247,84.3473171 Z" id="Shape"></path>
                        <path d="M19.2592815,87.4019512 L18.3234085,87.4019512 L16.4516625,82.3765854 C16.5994319,82.3273171 16.7472013,82.2780488 16.9442272,82.2780488 C17.1412531,82.2780488 17.338279,82.3273171 17.436792,82.475122 C17.5353049,82.6229268 17.6338179,82.82 17.7323308,83.0663415 L18.8652297,86.4658537 L20.0473851,83.1156098 C20.1458981,82.8692683 20.244411,82.6721951 20.342924,82.5243902 C20.4414369,82.3765854 20.5892063,82.3273171 20.8354887,82.3273171 C20.9340017,82.3273171 20.9832581,82.3273171 21.0817711,82.3765854 C21.180284,82.3765854 21.2295405,82.4258537 21.278797,82.4258537 L19.2592815,87.4019512 Z" id="Shape"></path>
                        <path d="M24.184929,86.7614634 C24.3819549,86.7614634 24.5789808,86.7614634 24.7267502,86.7121951 C24.8745196,86.6629268 25.0222891,86.6136585 25.120802,86.5643902 C25.219315,86.515122 25.3178279,86.4165854 25.4163409,86.3673171 C25.5148538,86.3180488 25.5641103,86.2195122 25.6133668,86.1702439 C25.7118797,86.2687805 25.7611362,86.3673171 25.8103926,86.515122 C25.8596491,86.6136585 25.9089056,86.7121951 25.9089056,86.7614634 C25.9089056,86.8107317 25.9089056,86.86 25.8596491,86.9585366 C25.8103926,87.0078049 25.7611362,87.1063415 25.6626232,87.1556098 C25.5148538,87.3034146 25.2685714,87.4019512 25.0222891,87.4512195 C24.7760067,87.5497561 24.4312114,87.5990244 24.086416,87.5990244 C23.7416207,87.5990244 23.4460819,87.5497561 23.150543,87.4512195 C22.8550042,87.3526829 22.6087218,87.204878 22.3624394,87.0078049 C22.1161571,86.8107317 21.9683876,86.515122 21.8206182,86.1702439 C21.6728488,85.8253659 21.6235923,85.3819512 21.6235923,84.8892683 C21.6235923,84.4458537 21.6728488,84.0517073 21.8206182,83.7068293 C21.9683876,83.3619512 22.1161571,83.1156098 22.3624394,82.9185366 C22.5594653,82.7214634 22.8057477,82.5736585 23.1012865,82.475122 C23.3968254,82.3765854 23.6431078,82.3273171 23.9386466,82.3273171 C24.2834419,82.3273171 24.6282373,82.3765854 24.8745196,82.5243902 C25.120802,82.6229268 25.3670844,82.82 25.5148538,83.0170732 C25.6626232,83.2141463 25.8103926,83.4604878 25.8596491,83.7068293 C25.9581621,83.9531707 25.9581621,84.2487805 25.9581621,84.5443902 C25.9581621,84.6429268 25.9581621,84.7414634 25.9581621,84.84 C25.9581621,84.9385366 25.9581621,85.0370732 25.9089056,85.1356098 L22.5594653,85.1356098 C22.5594653,85.6282927 22.7072348,86.0717073 22.9535171,86.3673171 C23.2983124,86.5643902 23.6923642,86.7614634 24.184929,86.7614634 Z M25.120802,84.3473171 C25.120802,84.1502439 25.120802,83.9531707 25.0715455,83.8053659 C25.0222891,83.657561 24.9730326,83.5097561 24.8745196,83.3619512 C24.7760067,83.2141463 24.6774937,83.1156098 24.5297243,83.0663415 C24.3819549,83.0170732 24.184929,82.9678049 23.9879031,82.9678049 C23.6431078,82.9678049 23.2983124,83.0663415 23.1012865,83.3126829 C22.8550042,83.5590244 22.7072348,83.9039024 22.7072348,84.2980488 L25.120802,84.2980488 L25.120802,84.3473171 Z" id="Shape"></path>
                        <path d="M28.1747034,86.3673171 C28.1747034,86.4658537 28.1747034,86.5643902 28.1747034,86.6629268 C28.1747034,86.7614634 28.2239599,86.8107317 28.2239599,86.86 C28.2732164,86.9092683 28.3224728,86.9585366 28.3717293,86.9585366 C28.4209858,87.0078049 28.5194987,87.0078049 28.6672682,87.0078049 L28.6672682,87.4019512 C28.6180117,87.4019512 28.5194987,87.4512195 28.4209858,87.4512195 C28.3224728,87.4512195 28.2239599,87.4512195 28.0761905,87.4512195 C27.8791646,87.4512195 27.7313952,87.4019512 27.5836257,87.3526829 C27.4851128,87.3034146 27.3865998,87.204878 27.3373434,87.1063415 C27.2880869,87.0078049 27.2388304,86.86 27.2388304,86.7614634 C27.2388304,86.6136585 27.2388304,86.515122 27.2388304,86.3673171 L27.2388304,79.8146341 L27.2880869,79.8146341 C27.2880869,79.8146341 27.3373434,79.8146341 27.3373434,79.8146341 C27.3373434,79.8146341 27.3865998,79.8146341 27.3865998,79.8146341 C27.5836257,79.8146341 27.7806516,79.8639024 27.8791646,79.962439 C27.9776775,80.0609756 28.0761905,80.2580488 28.0761905,80.5043902 L28.0761905,86.3673171 L28.1747034,86.3673171 Z" id="Shape"></path>
                        <path d="M34.1347368,84.84 C34.1347368,85.184878 34.0854804,85.5297561 33.9869674,85.8746341 C33.8884545,86.2195122 33.740685,86.4658537 33.5929156,86.7121951 C33.3958897,86.9585366 33.1496074,87.1556098 32.8540685,87.3034146 C32.5585297,87.4512195 32.2137343,87.5497561 31.7704261,87.5497561 C31.3271178,87.5497561 30.9823225,87.5004878 30.6867836,87.3526829 C30.3912448,87.204878 30.1449624,87.0078049 29.9479365,86.7614634 C29.7509106,86.515122 29.6031412,86.2195122 29.5538847,85.9239024 C29.4553718,85.5790244 29.4061153,85.2834146 29.4061153,84.8892683 C29.4061153,84.5443902 29.4553718,84.1995122 29.5538847,83.8546341 C29.6523977,83.5097561 29.8001671,83.2634146 29.997193,83.0170732 C30.1942189,82.7707317 30.4405013,82.5736585 30.7360401,82.4258537 C31.0315789,82.2780488 31.3763743,82.2287805 31.7704261,82.2287805 C32.2137343,82.2287805 32.5585297,82.2780488 32.8540685,82.4258537 C33.1496074,82.5736585 33.3958897,82.7707317 33.5929156,83.0170732 C33.7899415,83.2634146 33.9377109,83.5097561 33.9869674,83.8546341 C34.0854804,84.1502439 34.1347368,84.495122 34.1347368,84.84 M33.1496074,84.84 C33.1496074,84.6429268 33.1496074,84.3965854 33.1003509,84.1995122 C33.0510944,84.002439 33.0018379,83.8053659 32.903325,83.6082927 C32.804812,83.4112195 32.6570426,83.3126829 32.5092732,83.164878 C32.3122473,83.0663415 32.1152214,83.0170732 31.8196825,83.0170732 C31.5241437,83.0170732 31.3271178,83.0663415 31.1300919,83.164878 C30.933066,83.2634146 30.7852966,83.4112195 30.6867836,83.6082927 C30.5882707,83.8053659 30.4897577,84.002439 30.4405013,84.1995122 C30.3912448,84.3965854 30.3912448,84.6429268 30.3912448,84.84 C30.3912448,85.0370732 30.3912448,85.2834146 30.4405013,85.5297561 C30.4897577,85.7760976 30.5390142,85.9731707 30.6375272,86.1209756 C30.7360401,86.3180488 30.8838095,86.4658537 31.0808354,86.5643902 C31.2778613,86.6629268 31.4748872,86.7614634 31.7704261,86.7614634 C32.0659649,86.7614634 32.3122473,86.7121951 32.4600167,86.5643902 C32.6570426,86.4658537 32.804812,86.3180488 32.903325,86.1209756 C33.0018379,85.9239024 33.0510944,85.7268293 33.1003509,85.5297561 C33.1496074,85.2834146 33.1496074,85.0370732 33.1496074,84.84" id="Shape"></path>
                        <path d="M35.5139181,82.3273171 C35.6616876,82.3273171 35.809457,82.3765854 35.9572264,82.4258537 C36.1049958,82.5243902 36.1542523,82.6229268 36.2035088,82.82 C36.3512782,82.6721951 36.5483041,82.5243902 36.7945865,82.3765854 C37.0408688,82.2780488 37.3364077,82.1795122 37.681203,82.1795122 C37.9767419,82.1795122 38.2230242,82.2287805 38.4693066,82.3273171 C38.715589,82.4258537 38.9126149,82.5736585 39.1096408,82.7707317 C39.3066667,82.9678049 39.4544361,83.2634146 39.552949,83.5590244 C39.651462,83.9039024 39.7007185,84.2980488 39.7007185,84.7414634 C39.7007185,85.2834146 39.651462,85.7268293 39.5036926,86.0717073 C39.3559231,86.4165854 39.2081537,86.7121951 39.0111278,86.9092683 C38.8141019,87.1063415 38.5678195,87.2541463 38.3215372,87.3526829 C38.0752548,87.4512195 37.8289724,87.5004878 37.5826901,87.5004878 C37.1886383,87.5004878 36.8930994,87.4512195 36.6960735,87.3034146 C36.4497911,87.1556098 36.3020217,87.0570732 36.2527652,86.9585366 L36.2527652,89.6682927 L35.3661487,89.6682927 L35.3661487,82.3273171 L35.4154052,82.3273171 C35.4154052,82.3273171 35.4646617,82.3273171 35.4646617,82.3273171 C35.4646617,82.3273171 35.5139181,82.3273171 35.5139181,82.3273171 M38.7648454,84.84 C38.7648454,84.5936585 38.7648454,84.3473171 38.715589,84.1009756 C38.6663325,83.8546341 38.617076,83.657561 38.4693066,83.5097561 C38.3707937,83.3619512 38.2230242,83.2141463 38.0752548,83.1156098 C37.8782289,83.0170732 37.681203,82.9678049 37.4349206,82.9678049 C37.0901253,82.9678049 36.7945865,83.0170732 36.5975606,83.164878 C36.3512782,83.3126829 36.2527652,83.4604878 36.2527652,83.657561 L36.2527652,86.0717073 C36.3020217,86.1209756 36.3512782,86.1702439 36.4005347,86.2687805 C36.4497911,86.3180488 36.5483041,86.4165854 36.646817,86.4658537 C36.74533,86.515122 36.8438429,86.5643902 36.9916124,86.6136585 C37.1393818,86.6629268 37.2871512,86.6629268 37.4349206,86.6629268 C37.8782289,86.6629268 38.2230242,86.515122 38.4200501,86.1702439 C38.6663325,85.9239024 38.7648454,85.4312195 38.7648454,84.84" id="Shape"></path>
                        <path d="M43.493467,82.2287805 C43.7397494,82.2287805 44.0352882,82.2780488 44.2815706,82.3765854 C44.527853,82.475122 44.7741353,82.6721951 44.8726483,82.8692683 C45.0204177,82.6721951 45.2667001,82.5243902 45.5622389,82.4258537 C45.8577778,82.2780488 46.1533166,82.2287805 46.5473684,82.2287805 C46.9906767,82.2287805 47.3847285,82.3273171 47.6310109,82.5736585 C47.8772932,82.7707317 48.0743191,83.0663415 48.1235756,83.3619512 C48.1728321,83.5097561 48.1728321,83.657561 48.1728321,83.8546341 C48.1728321,84.0517073 48.1728321,84.1995122 48.1728321,84.3473171 L48.1728321,87.4019512 L47.2862155,87.4019512 L47.2862155,84.3965854 C47.2862155,84.2487805 47.2862155,84.1502439 47.2862155,84.002439 C47.2862155,83.8546341 47.2862155,83.7560976 47.2369591,83.657561 C47.1877026,83.4604878 47.0891896,83.3126829 46.9414202,83.2141463 C46.7936508,83.1156098 46.5473684,83.0663415 46.2518296,83.0663415 C46.0055472,83.0663415 45.8085213,83.1156098 45.6114954,83.2141463 C45.4144695,83.3126829 45.2667001,83.4112195 45.1681871,83.5590244 C45.1681871,83.657561 45.2174436,83.8053659 45.2174436,83.9531707 C45.2174436,84.1009756 45.2174436,84.1995122 45.2174436,84.3473171 L45.2174436,87.4019512 L44.3308271,87.4019512 L44.3308271,84.3965854 C44.3308271,84.2487805 44.3308271,84.1009756 44.3308271,83.9531707 C44.3308271,83.8053659 44.2815706,83.7068293 44.2323141,83.6082927 C44.1338012,83.2634146 43.7890058,83.0663415 43.2471846,83.0663415 C43.0994152,83.0663415 42.9516458,83.0663415 42.8038764,83.1156098 C42.6561069,83.164878 42.5083375,83.2141463 42.4098246,83.2634146 C42.3113116,83.3126829 42.2127987,83.4112195 42.1142857,83.5097561 C42.0650292,83.6082927 42.0157728,83.7068293 42.0157728,83.7560976 L42.0157728,87.3526829 L41.1291562,87.3526829 L41.1291562,82.2780488 L41.1784127,82.2780488 C41.1784127,82.2780488 41.2276692,82.2780488 41.2276692,82.2780488 C41.2769256,82.2780488 41.2769256,82.2780488 41.2769256,82.2780488 C41.4739515,82.2780488 41.621721,82.3273171 41.7202339,82.4258537 C41.8187469,82.5243902 41.9172598,82.6721951 41.9172598,82.82 C42.0650292,82.6721951 42.3113116,82.5243902 42.557594,82.3765854 C42.8038764,82.2780488 43.1486717,82.2287805 43.493467,82.2287805" id="Shape"></path>
                        <path d="M51.9163241,86.7614634 C52.11335,86.7614634 52.3103759,86.7614634 52.4581454,86.7121951 C52.6059148,86.6629268 52.7536842,86.6136585 52.8521972,86.5643902 C52.9507101,86.515122 53.0492231,86.4165854 53.147736,86.3673171 C53.246249,86.3180488 53.2955054,86.2195122 53.3447619,86.1702439 C53.4432749,86.2687805 53.4925313,86.3673171 53.5417878,86.515122 C53.5910443,86.6136585 53.6403008,86.7121951 53.6403008,86.7614634 C53.6403008,86.8107317 53.6403008,86.86 53.5910443,86.9585366 C53.5417878,87.0078049 53.4925313,87.1063415 53.3940184,87.1556098 C53.246249,87.3034146 52.9999666,87.4019512 52.7536842,87.4512195 C52.5074018,87.5497561 52.1626065,87.5990244 51.8178112,87.5990244 C51.4730159,87.5990244 51.177477,87.5497561 50.8819382,87.4512195 C50.5863993,87.3526829 50.340117,87.204878 50.0938346,87.0078049 C49.8475522,86.8107317 49.6997828,86.515122 49.5520134,86.1702439 C49.4042439,85.8253659 49.3549875,85.3819512 49.3549875,84.8892683 C49.3549875,84.4458537 49.4042439,84.0517073 49.5520134,83.7068293 C49.6997828,83.3619512 49.8475522,83.1156098 50.0938346,82.9185366 C50.2908605,82.7214634 50.5371429,82.5736585 50.8326817,82.475122 C51.1282206,82.3765854 51.3745029,82.3273171 51.6700418,82.3273171 C52.0148371,82.3273171 52.3596324,82.3765854 52.6059148,82.5243902 C52.8521972,82.6229268 53.0984795,82.82 53.246249,83.0170732 C53.3940184,83.2141463 53.5417878,83.4604878 53.5910443,83.7068293 C53.6895572,83.9531707 53.6895572,84.2487805 53.6895572,84.5443902 C53.6895572,84.6429268 53.6895572,84.7414634 53.6895572,84.84 C53.6895572,84.9385366 53.6895572,85.0370732 53.6403008,85.1356098 L50.2908605,85.1356098 C50.2908605,85.6282927 50.4386299,86.0717073 50.6849123,86.3673171 C50.9804511,86.5643902 51.3745029,86.7614634 51.9163241,86.7614634 Z M52.8521972,84.3473171 C52.8521972,84.1502439 52.8521972,83.9531707 52.8029407,83.8053659 C52.7536842,83.657561 52.7044277,83.5097561 52.6059148,83.3619512 C52.5074018,83.2141463 52.4088889,83.1156098 52.2611195,83.0663415 C52.11335,83.0170732 51.9163241,82.9678049 51.7192982,82.9678049 C51.3252464,82.9678049 51.0297076,83.0663415 50.8326817,83.3126829 C50.5863993,83.5590244 50.4386299,83.9039024 50.4386299,84.2980488 L52.8521972,84.2980488 L52.8521972,84.3473171 Z" id="Shape"></path>
                        <path d="M55.117995,82.2780488 C55.2657644,82.2780488 55.4135338,82.3273171 55.5613033,82.4258537 C55.7090727,82.5243902 55.7583292,82.6721951 55.8075856,82.8692683 C55.9553551,82.7214634 56.2016374,82.5736585 56.4971763,82.4258537 C56.7927151,82.2780488 57.088254,82.2287805 57.4823058,82.2287805 C57.9748705,82.2287805 58.3196658,82.3273171 58.6152047,82.5736585 C58.8614871,82.7707317 59.0585129,83.0663415 59.1077694,83.3619512 C59.1570259,83.5097561 59.1570259,83.657561 59.1570259,83.8546341 C59.1570259,84.0517073 59.1570259,84.1995122 59.1570259,84.3473171 L59.1570259,87.4019512 L58.2704094,87.4019512 L58.2704094,84.3965854 C58.2704094,84.2487805 58.2704094,84.1502439 58.2704094,84.002439 C58.2704094,83.8546341 58.2704094,83.7560976 58.2211529,83.657561 C58.1718964,83.4604878 58.0733835,83.3126829 57.925614,83.2141463 C57.7778446,83.1156098 57.5315622,83.0663415 57.2360234,83.0663415 C56.8419716,83.0663415 56.4971763,83.164878 56.2508939,83.3126829 C56.0046115,83.4604878 55.9060986,83.657561 55.9060986,83.8546341 L55.9060986,87.4019512 L55.019482,87.4019512 L55.019482,82.3273171 L55.0687385,82.3273171 C55.0687385,82.3273171 55.117995,82.3273171 55.117995,82.3273171 C55.117995,82.2780488 55.117995,82.2780488 55.117995,82.2780488" id="Shape"></path>
                        <path d="M60.7332331,86.7121951 C60.6839766,86.5643902 60.6347201,86.4165854 60.6347201,86.2687805 C60.6347201,86.1209756 60.6347201,85.9731707 60.6347201,85.7760976 L60.6347201,80.8 L60.6839766,80.8 C60.6839766,80.8 60.7332331,80.8 60.7332331,80.8 C60.7332331,80.8 60.7824896,80.8 60.7824896,80.8 C60.9795155,80.8 61.1272849,80.8492683 61.2750543,80.9478049 C61.4228237,81.0463415 61.4720802,81.2434146 61.4720802,81.4897561 L61.4720802,82.3273171 L63.0482874,82.3273171 L63.0482874,83.1156098 L61.4720802,83.1156098 L61.4720802,85.8746341 C61.4720802,86.4658537 61.7183626,86.7614634 62.1616708,86.7614634 C62.2601838,86.7614634 62.3586967,86.7614634 62.5064662,86.7121951 C62.6049791,86.6629268 62.7034921,86.6136585 62.7527485,86.5643902 C62.8512615,86.515122 62.900518,86.4658537 62.9497744,86.4165854 C62.9990309,86.3673171 63.0482874,86.3180488 63.0482874,86.3180488 C63.1468003,86.4165854 63.1960568,86.515122 63.2453133,86.6136585 C63.2945698,86.7121951 63.3438262,86.8107317 63.3438262,86.9092683 C63.3438262,86.9585366 63.2945698,87.0570732 63.2453133,87.1063415 C63.1960568,87.204878 63.0975439,87.2541463 62.9990309,87.3034146 C62.900518,87.3526829 62.7527485,87.4019512 62.5557226,87.4512195 C62.4079532,87.5004878 62.2109273,87.5004878 62.0139014,87.5004878 C61.6198496,87.5004878 61.3243108,87.4512195 61.1272849,87.3034146 C60.9795155,87.1556098 60.831746,86.9585366 60.7332331,86.7121951" id="Shape"></path>
                        <path d="M23.1012865,93.2156098 C23.1012865,93.5112195 23.0520301,93.8068293 22.9535171,94.0039024 C22.8550042,94.2502439 22.7564912,94.4473171 22.6087218,94.595122 C22.4609524,94.7429268 22.313183,94.8907317 22.1161571,95.0385366 C21.9191312,95.1863415 21.7221053,95.2356098 21.5250794,95.284878 L23.4953383,98.3887805 C23.4460819,98.4380488 23.3475689,98.4380488 23.249056,98.4873171 C23.150543,98.4873171 23.0520301,98.4873171 23.0027736,98.4873171 C22.6579783,98.4873171 22.4116959,98.3395122 22.2639265,98.0931707 L20.5892063,95.4819512 L19.6533333,95.4819512 L19.6533333,98.4380488 L18.7174603,98.4380488 L18.7174603,91.2941463 C18.9637427,91.244878 19.2592815,91.244878 19.5548204,91.1956098 C19.8503592,91.1956098 20.1458981,91.1956098 20.3921805,91.1956098 C21.3773099,91.1956098 22.0669006,91.3434146 22.5102089,91.6882927 C22.9042607,92.0331707 23.1012865,92.5258537 23.1012865,93.2156098 M22.1654135,93.3141463 C22.1654135,93.0678049 22.1161571,92.8214634 22.0176441,92.6736585 C21.9191312,92.5258537 21.8206182,92.3780488 21.6728488,92.2795122 C21.5250794,92.1809756 21.3280535,92.1317073 21.1310276,92.082439 C20.9340017,92.0331707 20.6877193,92.0331707 20.3921805,92.0331707 C20.244411,92.0331707 20.0473851,92.0331707 19.9488722,92.0331707 C19.8011028,92.0331707 19.7025898,92.0331707 19.6040769,92.082439 L19.6040769,94.7921951 L20.3921805,94.7921951 C20.6384628,94.7921951 20.8847452,94.7429268 21.1310276,94.6936585 C21.3280535,94.6443902 21.5250794,94.5458537 21.6728488,94.4473171 C21.8206182,94.3487805 21.9683876,94.2009756 22.0176441,94.0039024 C22.1161571,93.757561 22.1654135,93.5604878 22.1654135,93.3141463" id="Shape"></path>
                        <path d="M26.6970092,97.797561 C26.8940351,97.797561 27.091061,97.797561 27.2388304,97.7482927 C27.3865998,97.6990244 27.5343693,97.6497561 27.6328822,97.6004878 C27.7313952,97.5512195 27.8299081,97.4526829 27.9284211,97.4034146 C28.026934,97.3541463 28.0761905,97.2556098 28.125447,97.2063415 C28.2239599,97.304878 28.2732164,97.4034146 28.3224728,97.5512195 C28.3717293,97.6497561 28.4209858,97.7482927 28.4209858,97.797561 C28.4209858,97.8468293 28.4209858,97.8960976 28.3717293,97.9946341 C28.3224728,98.0439024 28.2732164,98.142439 28.1747034,98.1917073 C28.026934,98.3395122 27.7806516,98.4380488 27.5343693,98.4873171 C27.2880869,98.5858537 26.9432916,98.635122 26.5984962,98.635122 C26.2537009,98.635122 25.9581621,98.5858537 25.6626232,98.4873171 C25.3670844,98.3887805 25.120802,98.2409756 24.8745196,98.0439024 C24.6282373,97.8468293 24.4804678,97.5512195 24.3326984,97.2063415 C24.184929,96.8614634 24.1356725,96.4180488 24.1356725,95.9253659 C24.1356725,95.4819512 24.184929,95.0878049 24.3326984,94.7429268 C24.4804678,94.3980488 24.6282373,94.1517073 24.8745196,93.9546341 C25.0715455,93.757561 25.3178279,93.6097561 25.6133668,93.5112195 C25.9089056,93.4126829 26.155188,93.3634146 26.4507268,93.3634146 C26.7955221,93.3634146 27.1403175,93.4126829 27.3865998,93.5604878 C27.6328822,93.6590244 27.8791646,93.8560976 28.026934,94.0531707 C28.1747034,94.2502439 28.3224728,94.4965854 28.3717293,94.7429268 C28.4702423,94.9892683 28.4702423,95.284878 28.4702423,95.5804878 C28.4702423,95.6790244 28.4702423,95.777561 28.4702423,95.8760976 C28.4702423,95.9746341 28.4702423,96.0731707 28.4209858,96.1717073 L25.120802,96.1717073 C25.120802,96.7136585 25.2685714,97.1078049 25.5148538,97.4034146 C25.7611362,97.6497561 26.155188,97.797561 26.6970092,97.797561 Z M27.5836257,95.3834146 C27.5836257,95.1863415 27.5836257,94.9892683 27.5343693,94.8414634 C27.4851128,94.6936585 27.4358563,94.5458537 27.3373434,94.3980488 C27.2388304,94.2502439 27.1403175,94.1517073 26.992548,94.102439 C26.8447786,94.0531707 26.6477527,94.0039024 26.4507268,94.0039024 C26.056675,94.0039024 25.7611362,94.102439 25.5641103,94.3487805 C25.3178279,94.595122 25.1700585,94.94 25.1700585,95.3341463 L27.5836257,95.3341463 L27.5836257,95.3834146 Z" id="Shape"></path>
                        <path d="M33.8884545,98.0931707 C33.8884545,98.5365854 33.839198,98.9307317 33.7899415,99.2756098 C33.6914286,99.6204878 33.5929156,99.9160976 33.3958897,100.113171 C33.1988638,100.359512 32.9525815,100.507317 32.6570426,100.655122 C32.3615038,100.802927 31.967452,100.852195 31.4748872,100.852195 C31.1300919,100.852195 30.834553,100.802927 30.5882707,100.753659 C30.3419883,100.70439 30.1449624,100.605854 29.9479365,100.507317 C29.8001671,100.40878 29.7509106,100.359512 29.6523977,100.260976 C29.6031412,100.211707 29.5538847,100.113171 29.5538847,100.014634 C29.5538847,99.9160976 29.6031412,99.817561 29.6523977,99.7190244 C29.7509106,99.6204878 29.8001671,99.5219512 29.8494236,99.4234146 C29.8494236,99.4234146 29.89868,99.4726829 29.997193,99.5712195 C30.0957059,99.6204878 30.1942189,99.7190244 30.2927318,99.7682927 C30.4405013,99.817561 30.5882707,99.9160976 30.7360401,99.9653659 C30.933066,100.014634 31.1300919,100.063902 31.3271178,100.063902 C31.6719131,100.063902 31.9181955,100.014634 32.1644779,99.9160976 C32.3615038,99.817561 32.5092732,99.6697561 32.6570426,99.5219512 C32.7555556,99.324878 32.8540685,99.1278049 32.8540685,98.8814634 C32.903325,98.635122 32.903325,98.3887805 32.903325,98.0931707 L32.903325,97.9946341 C32.8540685,98.0439024 32.7555556,98.142439 32.7062991,98.1917073 C32.6077861,98.2409756 32.5092732,98.3395122 32.4107602,98.3887805 C32.3122473,98.4380488 32.1644779,98.4873171 32.0167084,98.5365854 C31.868939,98.5858537 31.7211696,98.5858537 31.5241437,98.5858537 C31.2286048,98.5858537 30.9823225,98.5365854 30.7360401,98.4380488 C30.4897577,98.3395122 30.2434754,98.1917073 30.0464495,97.9946341 C29.8494236,97.797561 29.7016541,97.5019512 29.6031412,97.2063415 C29.5046282,96.8614634 29.4553718,96.4673171 29.4553718,95.9746341 C29.4553718,95.4819512 29.5046282,95.0878049 29.6031412,94.7429268 C29.7016541,94.3980488 29.8494236,94.102439 30.0464495,93.9053659 C30.2434754,93.7082927 30.4405013,93.5112195 30.7360401,93.4126829 C30.9823225,93.3141463 31.2778613,93.264878 31.5734002,93.264878 C31.9181955,93.264878 32.2137343,93.3141463 32.4107602,93.4126829 C32.6570426,93.5112195 32.804812,93.6590244 33.0018379,93.8068293 C33.0510944,93.6590244 33.1003509,93.5112195 33.2481203,93.4619512 C33.3958897,93.3634146 33.4944027,93.3634146 33.6421721,93.3634146 C33.6914286,93.3634146 33.6914286,93.3634146 33.740685,93.3634146 C33.7899415,93.3634146 33.7899415,93.3634146 33.839198,93.3634146 C33.8884545,93.3634146 33.8884545,93.3634146 33.9377109,93.3634146 L33.9377109,98.0931707 L33.8884545,98.0931707 Z M30.4405013,95.8760976 C30.4405013,96.1717073 30.4405013,96.4180488 30.4897577,96.6643902 C30.5390142,96.9107317 30.5882707,97.1078049 30.7360401,97.2556098 C30.834553,97.4526829 30.9823225,97.5512195 31.1793484,97.6497561 C31.3763743,97.7482927 31.5734002,97.797561 31.8196825,97.797561 C31.967452,97.797561 32.1644779,97.797561 32.3122473,97.7482927 C32.4600167,97.6990244 32.6077861,97.6497561 32.7062991,97.6004878 C32.804812,97.5512195 32.903325,97.4526829 32.9525815,97.3541463 C33.0018379,97.2556098 33.0510944,97.2063415 33.0510944,97.1078049 L33.0510944,94.595122 C33.0018379,94.5458537 32.9525815,94.4965854 32.903325,94.4473171 C32.8540685,94.3980488 32.7555556,94.2995122 32.6570426,94.2502439 C32.5585297,94.2009756 32.4107602,94.1517073 32.3122473,94.102439 C32.1644779,94.0531707 32.0167084,94.0531707 31.868939,94.0531707 C31.4748872,94.0531707 31.1300919,94.2009756 30.8838095,94.4965854 C30.5390142,94.8414634 30.4405013,95.284878 30.4405013,95.8760976 Z" id="Shape"></path>
                        <path d="M36.3512782,91.737561 C36.3512782,91.8853659 36.3020217,92.0331707 36.2035088,92.1317073 C36.1049958,92.2302439 35.9572264,92.2795122 35.809457,92.2795122 C35.6616876,92.2795122 35.5139181,92.2302439 35.4154052,92.1317073 C35.3168922,92.0331707 35.2676358,91.8853659 35.2676358,91.737561 C35.2676358,91.5404878 35.3168922,91.3926829 35.4154052,91.2941463 C35.5139181,91.1956098 35.6616876,91.1463415 35.809457,91.1463415 C35.9572264,91.1463415 36.1049958,91.1956098 36.2035088,91.2941463 C36.3020217,91.4419512 36.3512782,91.5897561 36.3512782,91.737561 Z M35.3661487,93.3634146 L35.4154052,93.3634146 C35.4154052,93.3634146 35.4646617,93.3634146 35.4646617,93.3634146 C35.4646617,93.3634146 35.5139181,93.3634146 35.5139181,93.3634146 C35.710944,93.3634146 35.9079699,93.4126829 36.0064829,93.5112195 C36.1542523,93.6097561 36.2035088,93.8068293 36.2035088,94.0531707 L36.2035088,97.4526829 C36.2035088,97.6497561 36.2527652,97.797561 36.3020217,97.8960976 C36.3512782,97.9946341 36.4990476,98.0439024 36.74533,98.0439024 L36.74533,98.4380488 C36.6960735,98.4380488 36.5975606,98.4873171 36.4990476,98.4873171 C36.4005347,98.4873171 36.3020217,98.4873171 36.1542523,98.4873171 C35.9572264,98.4873171 35.809457,98.4380488 35.6616876,98.3887805 C35.5139181,98.3395122 35.4646617,98.2409756 35.4154052,98.142439 C35.3661487,98.0439024 35.3168922,97.8960976 35.3168922,97.797561 C35.3168922,97.6497561 35.3168922,97.5512195 35.3168922,97.4034146 L35.3168922,93.3634146 L35.3661487,93.3634146 Z" id="Shape"></path>
                        <path d="M38.0259983,93.3634146 C38.1737678,93.3634146 38.3215372,93.4126829 38.4693066,93.5112195 C38.617076,93.6097561 38.6663325,93.757561 38.715589,93.9546341 C38.8633584,93.8068293 39.1096408,93.6590244 39.4051796,93.5112195 C39.7007185,93.3634146 39.9962573,93.3141463 40.3903091,93.3141463 C40.8828739,93.3141463 41.2276692,93.4126829 41.523208,93.6590244 C41.7694904,93.8560976 41.9665163,94.1517073 42.0157728,94.4473171 C42.0650292,94.595122 42.0650292,94.7429268 42.0650292,94.94 C42.0650292,95.1370732 42.0650292,95.284878 42.0650292,95.4326829 L42.0650292,98.4873171 L41.1784127,98.4873171 L41.1784127,95.4819512 C41.1784127,95.3341463 41.1784127,95.2356098 41.1784127,95.0878049 C41.1784127,94.94 41.1784127,94.8414634 41.1291562,94.7429268 C41.0798997,94.5458537 40.9813868,94.3980488 40.8336174,94.2995122 C40.685848,94.2009756 40.4395656,94.1517073 40.1440267,94.1517073 C39.7499749,94.1517073 39.4051796,94.2502439 39.1588972,94.3980488 C38.9126149,94.5458537 38.8141019,94.7429268 38.8141019,94.94 L38.8141019,98.4873171 L37.9274854,98.4873171 L37.9274854,93.4126829 L37.9767419,93.4126829 C37.9767419,93.4126829 38.0259983,93.4126829 38.0259983,93.4126829 C37.9767419,93.3634146 38.0259983,93.3634146 38.0259983,93.3634146" id="Shape"></path>
                        <path d="M47.2862155,97.2556098 C47.2862155,97.4034146 47.2862155,97.5512195 47.2862155,97.6497561 C47.2862155,97.7482927 47.335472,97.797561 47.3847285,97.8468293 C47.433985,97.8960976 47.4832414,97.9453659 47.5324979,97.9453659 C47.5817544,97.9453659 47.6802673,97.9453659 47.7787803,97.9453659 L47.7787803,98.3887805 C47.7295238,98.3887805 47.6310109,98.4380488 47.5324979,98.4380488 C47.433985,98.4380488 47.335472,98.4380488 47.2369591,98.4380488 C46.9906767,98.4380488 46.7936508,98.3887805 46.6458814,98.2902439 C46.4981119,98.1917073 46.399599,98.0439024 46.3503425,97.797561 C46.1533166,97.9946341 45.9562907,98.142439 45.7100084,98.2409756 C45.463726,98.3887805 45.1189307,98.4380488 44.7248789,98.4380488 C44.527853,98.4380488 44.3308271,98.4380488 44.1830576,98.3887805 C43.9860317,98.3395122 43.8382623,98.2902439 43.6904929,98.142439 C43.5427235,98.0439024 43.3949541,97.8960976 43.2964411,97.6990244 C43.1979282,97.5019512 43.1486717,97.2556098 43.1486717,96.96 C43.1486717,96.5658537 43.2471846,96.2702439 43.4442105,96.0731707 C43.6412364,95.8268293 43.8875188,95.6297561 44.1338012,95.5312195 C44.42934,95.3834146 44.7248789,95.284878 45.0204177,95.2356098 C45.3159566,95.1863415 45.6114954,95.1370732 45.9070343,95.1370732 L46.1533166,95.1370732 C46.2518296,95.1370732 46.301086,95.1370732 46.399599,95.1370732 L46.399599,94.9892683 C46.399599,94.6443902 46.301086,94.4473171 46.1533166,94.2502439 C46.0055472,94.102439 45.7100084,94.0039024 45.2667001,94.0039024 C44.9219048,94.0039024 44.6756224,94.0531707 44.42934,94.1517073 C44.2323141,94.2502439 43.9860317,94.3487805 43.7890058,94.4965854 L43.6904929,94.4965854 C43.6412364,94.3980488 43.5919799,94.2995122 43.5427235,94.2009756 C43.493467,94.102439 43.493467,94.0039024 43.493467,93.9546341 C43.493467,93.8560976 43.5427235,93.757561 43.6412364,93.7082927 C43.7397494,93.6097561 43.8875188,93.5604878 44.0845447,93.5112195 C44.2815706,93.4619512 44.4785965,93.4126829 44.6756224,93.3634146 C44.8726483,93.3141463 45.1189307,93.3141463 45.3159566,93.3141463 C45.6607519,93.3141463 46.0055472,93.3634146 46.2025731,93.4126829 C46.4488555,93.5112195 46.6458814,93.6097561 46.7936508,93.757561 C46.9414202,93.9053659 47.0399332,94.102439 47.0891896,94.3487805 C47.1384461,94.595122 47.1877026,94.8414634 47.1877026,95.1863415 L47.1877026,97.2556098 L47.2862155,97.2556098 Z M46.399599,95.8760976 L46.1040602,95.8760976 C45.8577778,95.8760976 45.6607519,95.8760976 45.4144695,95.9253659 C45.1681871,95.9746341 44.9711612,96.0239024 44.7741353,96.0731707 C44.5771094,96.1717073 44.42934,96.2702439 44.2815706,96.4180488 C44.1830576,96.5658537 44.0845447,96.7629268 44.0845447,96.96 C44.0845447,97.1570732 44.1338012,97.3541463 44.2815706,97.5512195 C44.42934,97.6990244 44.6263659,97.797561 45.0204177,97.797561 C45.2174436,97.797561 45.365213,97.7482927 45.5622389,97.6990244 C45.7100084,97.6497561 45.8577778,97.6004878 46.0055472,97.5019512 C46.1533166,97.4034146 46.2518296,97.3541463 46.301086,97.2556098 C46.399599,97.1570732 46.399599,97.0585366 46.399599,97.0092683 L46.399599,95.8760976 Z" id="Shape"></path>
                        <path d="M52.1626065,98.4380488 L51.177477,98.4380488 L51.177477,91.1956098 C51.2267335,91.1956098 51.2267335,91.1956098 51.27599,91.1956098 C51.3252464,91.1956098 51.3252464,91.1956098 51.3745029,91.1956098 C51.4237594,91.1956098 51.4237594,91.1956098 51.4730159,91.1956098 C51.5222723,91.1956098 51.6207853,91.1956098 51.6700418,91.244878 C51.7685547,91.244878 51.8178112,91.2941463 51.9163241,91.3434146 C52.0148371,91.3926829 52.0640936,91.4419512 52.11335,91.5404878 C52.1626065,91.6390244 52.1626065,91.737561 52.1626065,91.8853659 L52.1626065,98.4380488 Z" id="Shape"></path>
                        <path d="M53.8373266,93.3141463 C53.9850961,93.3141463 54.1328655,93.3634146 54.2806349,93.4619512 C54.4284043,93.5604878 54.4776608,93.7082927 54.5269173,93.9053659 C54.6746867,93.757561 54.9209691,93.6097561 55.2165079,93.4619512 C55.5120468,93.3141463 55.8568421,93.264878 56.2016374,93.264878 C56.6942022,93.264878 57.088254,93.3634146 57.3345363,93.6097561 C57.5808187,93.8068293 57.7778446,94.102439 57.8271011,94.3980488 C57.8763576,94.5458537 57.8763576,94.6936585 57.8763576,94.8907317 C57.8763576,95.0878049 57.8763576,95.2356098 57.8763576,95.3834146 L57.8763576,98.4380488 L56.9404845,98.4380488 L56.9404845,95.3834146 C56.9404845,95.2356098 56.9404845,95.1370732 56.9404845,94.9892683 C56.9404845,94.8414634 56.9404845,94.7429268 56.8912281,94.6443902 C56.8419716,94.4473171 56.7434586,94.2995122 56.5956892,94.2009756 C56.4479198,94.102439 56.2016374,94.0531707 55.9060986,94.0531707 C55.5120468,94.0531707 55.1672515,94.1517073 54.9209691,94.2995122 C54.6746867,94.4473171 54.5761738,94.6443902 54.5761738,94.8414634 L54.5761738,98.4380488 L53.6403008,98.4380488 L53.6403008,93.3634146 L53.6895572,93.3634146 C53.6895572,93.3634146 53.7388137,93.3634146 53.7388137,93.3634146 C53.7880702,93.3141463 53.7880702,93.3141463 53.8373266,93.3141463" id="Shape"></path>
                        <path d="M61.6691061,97.797561 C61.866132,97.797561 62.0631579,97.7482927 62.2109273,97.6990244 C62.3586967,97.6497561 62.5064662,97.5512195 62.6049791,97.5019512 C62.7527485,97.4034146 62.8512615,97.304878 62.9497744,97.2063415 C62.9990309,97.2556098 63.0975439,97.3541463 63.1468003,97.4526829 C63.2453133,97.5512195 63.2945698,97.6990244 63.2945698,97.797561 C63.2945698,97.8960976 63.1960568,97.9946341 63.0482874,98.142439 C62.900518,98.2902439 62.7034921,98.3887805 62.4572097,98.4380488 C62.2109273,98.5365854 61.866132,98.5858537 61.5213367,98.5858537 C61.2750543,98.5858537 61.0287719,98.5365854 60.7824896,98.4873171 C60.4869507,98.4380488 60.2406683,98.2902439 59.994386,98.0931707 C59.7481036,97.8960976 59.5510777,97.6497561 59.3540518,97.2556098 C59.2062824,96.9107317 59.1077694,96.4673171 59.1077694,95.8760976 C59.1077694,95.3341463 59.2062824,94.8907317 59.3540518,94.5458537 C59.5510777,94.2009756 59.7481036,93.9053659 59.994386,93.7082927 C60.2406683,93.5112195 60.5362072,93.3634146 60.7824896,93.3141463 C61.0780284,93.2156098 61.3243108,93.2156098 61.5213367,93.2156098 C61.767619,93.2156098 62.0139014,93.264878 62.2109273,93.3141463 C62.4079532,93.3634146 62.6049791,93.4126829 62.7527485,93.5112195 C62.900518,93.6097561 62.9990309,93.6590244 63.0975439,93.757561 C63.1960568,93.8560976 63.1960568,93.9546341 63.1960568,94.0039024 C63.1960568,94.102439 63.1468003,94.2009756 63.0975439,94.2995122 C63.0482874,94.3980488 62.9990309,94.4965854 62.9497744,94.595122 L62.8512615,94.595122 C62.7034921,94.4473171 62.5557226,94.2995122 62.3586967,94.2009756 C62.1616708,94.0531707 61.9153885,94.0039024 61.5705931,94.0039024 C61.2750543,94.0039024 61.0780284,94.0531707 60.8810025,94.1517073 C60.6839766,94.2502439 60.5362072,94.3980488 60.3884378,94.5458537 C60.2406683,94.6936585 60.1914119,94.8907317 60.0928989,95.1370732 C60.0436424,95.3834146 59.994386,95.6297561 59.994386,95.8760976 C59.994386,96.122439 60.0436424,96.3687805 60.0928989,96.615122 C60.1421554,96.8614634 60.2406683,97.0585366 60.3884378,97.2063415 C60.5362072,97.3541463 60.6839766,97.5019512 60.8810025,97.6004878 C61.1272849,97.7482927 61.3735673,97.797561 61.6691061,97.797561" id="Shape"></path>
                        <path d="M65.3140852,97.9453659 C65.3140852,98.142439 65.2648287,98.2902439 65.1663158,98.4380488 C65.0678028,98.5858537 64.9200334,98.635122 64.7230075,98.635122 C64.5259816,98.635122 64.3782122,98.5858537 64.2796992,98.4380488 C64.1811863,98.2902439 64.1319298,98.142439 64.1319298,97.9453659 C64.1319298,97.7482927 64.1811863,97.6004878 64.3289557,97.4526829 C64.4274687,97.304878 64.5752381,97.2556098 64.772264,97.2556098 C64.9692899,97.2556098 65.1170593,97.304878 65.2155723,97.4526829 C65.2648287,97.6004878 65.3140852,97.7482927 65.3140852,97.9453659" id="Shape"></path>
                        <path d="M57.5315622,36.36 L56.3001504,39.9073171 L58.7137176,39.9073171 L57.5315622,36.36 Z M55.5120468,42.1736585 C55.5120468,42.1736585 55.2657644,42.7156098 55.0687385,43.257561 C54.8717126,43.7995122 54.4776608,44.1443902 53.8373266,44.1443902 L51.6700418,44.1443902 L55.9553551,32.9604878 L59.1077694,32.9604878 L63.3438262,44.1443902 L60.2406683,44.1443902 L59.5018212,42.2229268 L55.5120468,42.2229268 L55.5120468,42.1736585 Z" id="Shape"></path>
                        <path d="M3.20167084,37.9365854 L4.23605681,37.9365854 C5.17192982,37.9365854 6.25557226,37.7395122 6.25557226,36.5570732 C6.25557226,35.3253659 5.17192982,35.177561 4.23605681,35.177561 L3.20167084,35.177561 L3.20167084,37.9365854 Z M10.3438596,44.095122 L8.02880535,44.095122 C6.94516291,44.095122 6.40334169,43.602439 6.00928989,42.9126829 C5.56598162,42.2229268 3.98977444,39.8087805 3.98977444,39.8087805 L3.20167084,39.8087805 L3.20167084,44.095122 L0.295538847,44.095122 L0.295538847,32.9112195 L5.4182122,32.9112195 C7.63475355,32.9112195 9.30947368,33.9458537 9.30947368,36.36 C9.30947368,37.8873171 8.47211362,39.217561 6.84664996,39.5131707 L10.3438596,44.095122 Z" id="Shape"></path>
                        <path d="M31.9181955,37.8380488 C31.868939,39.4639024 31.7704261,40.8434146 30.7852966,42.2721951 C29.7016541,43.7995122 28.026934,44.4892683 26.155188,44.4892683 C22.6579783,44.4892683 20.1951546,42.1243902 20.1951546,38.5770732 C20.1951546,34.9312195 22.6579783,32.5663415 26.2537009,32.5663415 C28.5687552,32.5663415 30.3419883,33.6009756 31.2778613,35.7195122 L28.5687552,36.8526829 C28.1747034,35.7687805 27.3373434,35.0790244 26.155188,35.0790244 C24.2341855,35.0790244 23.249056,36.9019512 23.249056,38.6263415 C23.249056,40.3507317 24.2834419,42.1243902 26.2044444,42.1243902 C27.4851128,42.1243902 28.4209858,41.4839024 28.5687552,40.2029268 L27.2880869,40.2029268 C26.9432916,40.2029268 26.6477527,40.055122 26.4999833,39.7102439 C26.4014703,39.3653659 25.8596491,37.9365854 25.8596491,37.9365854 L31.9181955,37.9365854 L31.9181955,37.8380488 Z" id="Shape"></path>
                        <path d="M36.74533,44.095122 L33.839198,44.095122 L33.839198,34.1429268 C33.839198,33.157561 34.4302757,32.9112195 35.2183793,32.9112195 L36.74533,32.9112195 L36.74533,44.095122 Z" id="Shape"></path>
                        <path d="M39.2574102,32.9112195 L42.1635422,32.9112195 L47.4832414,39.7595122 L47.5324979,39.7595122 L47.5324979,34.34 C47.5324979,33.4039024 47.8280368,32.9604878 48.7146533,32.9604878 L50.4386299,32.9604878 L50.4386299,44.1443902 L47.5324979,44.1443902 L42.2127987,37.2468293 L42.1635422,37.2468293 L42.1635422,44.095122 L39.2574102,44.095122 L39.2574102,32.9112195 Z" id="Shape"></path>
                        <path d="M19.4563074,44.095122 L12.7081704,44.095122 C12.0678363,44.095122 11.5752715,43.602439 11.5752715,42.9619512 L11.5752715,34.0443902 C11.5752715,33.4039024 12.0678363,32.9112195 12.7081704,32.9112195 L19.4563074,32.9112195 C19.4563074,32.9112195 18.8159733,34.5370732 18.6682038,34.8819512 C18.5204344,35.2268293 18.2248956,35.3746341 17.8308438,35.3746341 L14.4814035,35.3746341 L14.4814035,37.2468293 L17.7815873,37.2468293 L17.7815873,39.7102439 L14.4814035,39.7102439 L14.4814035,41.6317073 L17.9786132,41.6317073 C18.274152,41.6317073 18.5204344,41.7795122 18.6682038,42.075122 C18.7667168,42.3707317 19.4563074,44.095122 19.4563074,44.095122" id="Shape"></path>
                        <path d="M45.1681871,25.6687805 C44.9219048,24.9297561 44.6263659,24.2892683 44.1830576,23.6487805 C43.9367753,23.3039024 43.6904929,23.0082927 43.4442105,22.7126829 C44.0845447,23.5009756 43.0501587,23.402439 42.6561069,23.3039024 C42.6561069,23.3039024 42.7053634,23.3039024 42.7053634,23.3039024 C42.7053634,23.3039024 42.6561069,23.3039024 42.6561069,23.3039024 C41.7694904,23.057561 40.5380785,22.564878 39.1096408,21.8258537 C37.0901253,20.7912195 34.3317627,18.9682927 31.967452,17.2931707 C31.6226566,17.0468293 31.2286048,16.7512195 30.8838095,16.4556098 C30.3419883,16.6034146 29.7509106,16.7019512 29.1598329,16.8497561 C30.0464495,18.2292683 30.7852966,19.2639024 31.5734002,20.4956098 C34.3317627,24.6341463 37.4349206,28.624878 40.8336174,29.3146341 C43.7397494,29.955122 45.8085213,27.6395122 45.1681871,25.6687805" id="Shape"></path>
                        <path d="M34.1839933,15.6673171 C34.1839933,15.6673171 34.2332498,15.6673171 34.2332498,15.6673171 C37.0408688,17.0468293 38.9618713,18.8204878 40.685848,20.2 C41.621721,20.9882927 42.7546199,22.0229268 43.3949541,22.7126829 C44.0352882,23.5009756 43.0009023,23.402439 42.6068505,23.3039024 C41.7202339,23.057561 40.4888221,22.564878 39.0603843,21.8258537 C39.0111278,21.7765854 36.4497911,18.5741463 33.2973768,16.5541463 C33.0018379,16.3570732 32.7555556,16.2092683 32.4600167,16.1107317 C33.0510944,15.9629268 33.6421721,15.815122 34.1839933,15.6673171" id="Shape"></path>
                        <path d="M42.7546199,4.7297561 C43.3456976,6.10926829 43.4442105,7.83365854 42.557594,9.80439024 C41.0306433,13.1546341 37.4349206,14.7312195 34.2825063,15.6180488 C33.4451462,15.2239024 32.5585297,14.8297561 31.6226566,14.5341463 C31.4256307,14.484878 31.1793484,14.3863415 30.933066,14.3370732 C33.9869674,12.7604878 35.9572264,11.1839024 37.4349206,9.60731707 C39.8484879,7.04536585 39.8977444,4.6804878 38.8141019,3.15317073 C38.1737678,2.26634146 37.1393818,1.82292683 35.8587135,2.16780488 C39.1096408,1.23170732 41.621721,2.51268293 42.7546199,4.7297561" id="Shape"></path>
                        <path d="M35.8587135,2.16780488 C35.3168922,2.31560976 34.775071,2.56195122 34.1839933,2.85756098 C30.9823225,4.48341463 28.0761905,8.03073171 26.1059315,12.4156098 C24.6774937,11.3317073 23.150543,10.444878 21.4265664,10.0507317 C23.5938513,6.7497561 26.3522139,3.20243902 29.9479365,1.47804878 C34.1347368,-0.54195122 36.5975606,0.147804878 38.2722807,0.640487805 C39.2574102,0.936097561 41.7202339,2.36487805 42.7053634,4.77902439 C41.621721,2.51268293 39.1096408,1.23170732 35.8587135,2.16780488 C35.8587135,2.16780488 35.8587135,2.16780488 35.8587135,2.16780488" id="Shape"></path>
                        <path d="M34.2825063,15.6673171 C34.2825063,15.6673171 34.2332498,15.6673171 34.2332498,15.6673171 C32.8540685,15.0760976 31.3271178,14.977561 29.8001671,15.4702439 C29.6523977,15.3717073 29.5538847,15.2239024 29.4061153,15.1253659 C29.9479365,14.8790244 30.4405013,14.6326829 30.933066,14.3863415 C31.1793484,14.4356098 31.4256307,14.5341463 31.6226566,14.5834146 C32.5585297,14.8790244 33.4451462,15.2239024 34.2825063,15.6673171" id="Shape"></path>
                        <path d="M34.1839933,15.6673171 C33.5929156,15.815122 33.0510944,15.9629268 32.5092732,16.1107317 C31.4748872,15.6180488 30.5882707,15.4702439 29.8494236,15.5687805 C29.8001671,15.5687805 29.8001671,15.5195122 29.7509106,15.5195122 C31.2778613,14.977561 32.8540685,15.0760976 34.1839933,15.6673171" id="Shape"></path>
                        <path d="M32.5092732,16.1107317 C32.2629908,16.16 32.0167084,16.2092683 31.7704261,16.2585366 C31.4748872,16.3078049 31.1793484,16.4063415 30.8838095,16.4556098 C30.5390142,16.16 30.1449624,15.8643902 29.8001671,15.5195122 C30.5882707,15.4209756 31.4748872,15.5687805 32.5092732,16.1107317" id="Shape"></path>
                        <path d="M29.8494236,15.5195122 C30.1942189,15.815122 30.5882707,16.16 30.933066,16.4556098 C30.3912448,16.6034146 29.8001671,16.7019512 29.2090894,16.8497561 C29.0120635,16.5541463 28.7657811,16.2585366 28.5687552,15.9629268 C28.6672682,15.9136585 28.8150376,15.815122 28.962807,15.7658537 C28.962807,15.7658537 28.962807,15.7658537 29.0120635,15.7658537 C29.2583459,15.6180488 29.5046282,15.5687805 29.8494236,15.5195122" id="Shape"></path>
                        <path d="M29.7509106,15.4702439 C29.8001671,15.4702439 29.8001671,15.5445086 29.8494236,15.5445086 C29.5538847,15.6187733 29.2583459,15.693038 28.962807,15.9158321 C29.2090894,15.693038 29.5046282,15.5445086 29.7509106,15.4702439" id="Shape"></path>
                        <path d="M30.8838095,14.3863415 C30.3912448,14.6326829 29.89868,14.8790244 29.3568588,15.1253659 C28.9135505,14.7312195 28.5194987,14.3863415 28.0761905,13.9921951 C29.1105764,13.9921951 30.0957059,14.14 30.8838095,14.3863415" id="Shape"></path>
                        <path d="M29.3568588,15.1253659 C29.5046282,15.2239024 29.6031412,15.3717073 29.7509106,15.4702439 C29.5046282,15.5687805 29.2090894,15.6673171 28.962807,15.7658537 C28.962807,15.7658537 28.962807,15.7658537 28.9135505,15.7658537 C28.7657811,15.815122 28.6672682,15.8643902 28.5194987,15.9629268 C28.4209858,15.815122 28.3224728,15.7165854 28.2732164,15.6180488 C28.6672682,15.4209756 29.0120635,15.2731707 29.3568588,15.1253659" id="Shape"></path>
                        <path d="M28.5687552,15.9629268 C28.7657811,16.2585366 28.962807,16.5541463 29.2090894,16.8497561 C28.5687552,16.997561 27.8791646,17.1453659 27.1403175,17.2439024 C27.5343693,16.7512195 28.026934,16.2585366 28.5687552,15.9629268" id="Shape"></path>
                        <path d="M29.3568588,15.1253659 C29.0120635,15.2731707 28.6672682,15.4209756 28.2732164,15.6180488 C27.8299081,14.977561 27.3865998,14.4356098 26.9432916,14.0414634 C27.3373434,13.9921951 27.6821387,13.9921951 28.0761905,14.0414634 C28.5194987,14.3370732 28.962807,14.7312195 29.3568588,15.1253659" id="Shape"></path>
                        <path d="M28.3224728,15.5687805 C28.4209858,15.6673171 28.5194987,15.815122 28.5687552,15.9136585 C28.026934,16.2585366 27.5343693,16.7019512 27.1403175,17.2439024 C26.2044444,17.3917073 25.219315,17.5395122 24.184929,17.5887805 C24.2834419,17.342439 24.3819549,17.0960976 24.4312114,16.8004878 C25.2685714,16.6526829 26.2044444,16.4063415 27.1895739,16.0121951 C27.5836257,15.9136585 27.9284211,15.7658537 28.3224728,15.5687805" id="Shape"></path>
                        <path d="M28.0761905,13.9921951 C27.7313952,13.9921951 27.3373434,13.9921951 26.9432916,13.9921951 C26.9432916,13.9921951 26.9432916,13.9921951 26.9432916,13.9921951 C26.6477527,13.6965854 26.2537009,13.3517073 25.8103926,13.0560976 C25.9089056,12.8097561 26.0074185,12.6126829 26.1059315,12.3663415 C26.7955221,12.9082927 27.4358563,13.4009756 28.0761905,13.9921951" id="Shape"></path>
                        <path d="M28.3224728,15.5687805 C27.9776775,15.7165854 27.5836257,15.8643902 27.2388304,16.0121951 C26.2537009,16.4063415 25.3178279,16.6526829 24.4804678,16.8004878 C24.7760067,16.0121951 25.0715455,15.1253659 25.4163409,14.1892683 C25.9581621,14.0907317 26.4507268,13.9921951 26.992548,13.9429268 C27.3865998,14.4356098 27.8299081,14.977561 28.3224728,15.5687805" id="Shape"></path>
                        <path d="M27.1403175,17.2931707 C26.992548,17.5395122 26.7955221,17.7858537 26.6477527,18.0321951 C25.5148538,20.0029268 24.4312114,25.422439 23.9879031,26.8019512 C23.9879031,26.8512195 23.9386466,26.9004878 23.9386466,26.9497561 C23.9386466,26.9497561 23.9386466,26.9497561 23.9386466,26.9497561 C23.3968254,28.2307317 21.3773099,28.8712195 21.7713617,26.8019512 C22.0669006,25.1760976 22.6087218,22.3185366 24.184929,17.6873171 C25.2685714,17.5395122 26.2537009,17.4409756 27.1403175,17.2931707" id="Shape"></path>
                        <path d="M26.155188,12.3663415 C26.056675,12.6126829 25.9581621,12.8097561 25.8596491,13.0560976 C24.5297243,12.12 22.7072348,11.282439 20.8354887,10.9868293 C21.0325146,10.6419512 21.278797,10.3463415 21.4758229,10.0014634 C23.1997995,10.444878 24.7267502,11.3317073 26.155188,12.3663415" id="Shape"></path>
                        <path d="M25.8596491,13.0560976 C25.7118797,13.4009756 25.6133668,13.7458537 25.4655973,14.0907317 C25.4655973,14.14 25.4163409,14.1892683 25.4163409,14.2385366 C24.8745196,14.3863415 24.3326984,14.5341463 23.8401337,14.7804878 C22.7072348,15.2731707 21.6235923,15.9629268 20.6877193,16.8497561 C19.7025898,16.6526829 18.9144862,16.3570732 18.3234085,16.0121951 C19.0129992,14.3370732 19.8503592,12.7112195 20.8354887,11.1346341 C20.8354887,11.0853659 20.8847452,11.0360976 20.9340017,11.0360976 C22.7072348,11.282439 24.5297243,12.12 25.8596491,13.0560976" id="Shape"></path>
                        <path d="M25.4163409,14.2385366 C25.0715455,15.1746341 24.7760067,16.0614634 24.4804678,16.8497561 C23.0027736,17.0960976 21.7221053,17.0468293 20.6877193,16.8497561 C21.6235923,15.9629268 22.7072348,15.2731707 23.8401337,14.7804878 C24.3326984,14.5341463 24.8745196,14.3370732 25.4163409,14.2385366" id="Shape"></path>
                        <path d="M24.4312114,16.8497561 C24.3326984,17.0960976 24.2341855,17.3917073 24.184929,17.6380488 C22.9042607,17.6873171 21.5250794,17.6873171 19.9981287,17.5395122 C19.9981287,17.5395122 19.9981287,17.5395122 19.9488722,17.5395122 C20.1458981,17.2931707 20.3921805,17.0960976 20.6384628,16.8497561 C21.6728488,17.0468293 22.9535171,17.0960976 24.4312114,16.8497561" id="Shape"></path>
                        <path d="M19.9981287,17.5395122 C21.5250794,17.6873171 22.9042607,17.7365854 24.184929,17.6380488 C22.6087218,22.2692683 22.0669006,25.1760976 21.7713617,26.7526829 C21.3773099,28.8219512 23.3968254,28.1814634 23.9386466,26.9004878 C22.5594653,30.3492683 19.0129992,28.0336585 19.0129992,28.0336585 C19.0129992,28.0336585 17.8801003,27.3439024 17.0427402,26.1121951 C16.5501754,24.7819512 16.7472013,23.3531707 17.436792,21.7765854 C18.1263826,20.2492683 19.0129992,18.524878 19.9981287,17.5395122 C19.9488722,17.4902439 19.9981287,17.5395122 19.9981287,17.5395122" id="Shape"></path>
                        <path d="M21.1310276,9.95219512 C21.2295405,9.95219512 21.3280535,10.0014634 21.4758229,10.0014634 C21.278797,10.3463415 21.0325146,10.6912195 20.8354887,10.9868293 C19.7518463,10.8390244 18.6189474,10.8882927 17.5845614,11.282439 C15.7620718,11.9229268 15.7128154,13.8443902 16.8457143,14.977561 C16.9442272,15.0760976 17.436792,15.5687805 18.3234085,16.0121951 C18.1756391,16.4063415 18.0278697,16.7512195 17.8801003,17.1453659 C14.2843776,16.2092683 13.1022222,14.0907317 13.8410693,12.2185366 C14.4814035,10.3956098 17.1905096,9.16390244 21.1310276,9.95219512" id="Shape"></path>
                        <path d="M20.6384628,16.8497561 C20.3921805,17.0468293 20.1951546,17.2931707 19.9488722,17.5395122 C19.1607686,17.4409756 18.4219215,17.342439 17.7815873,17.1453659 C17.9293567,16.7512195 18.0771261,16.4063415 18.2248956,16.0121951 C18.8652297,16.3078049 19.6533333,16.6526829 20.6384628,16.8497561" id="Shape"></path>
                        <path d="M17.8308438,17.1453659 C18.4711779,17.2931707 19.2100251,17.4409756 19.9981287,17.5395122 C19.0622556,18.5741463 18.1756391,20.2492683 17.4860485,21.7765854 C16.7964578,23.3531707 16.5994319,24.7819512 17.0919967,26.1121951 C16.500919,25.2253659 16.0576107,24.0921951 16.2546366,22.7619512 C16.500919,21.2346341 17.1412531,18.9682927 17.8308438,17.1453659" id="Shape"></path>
                        <path d="M16.2053801,52.4707317 L15.6143024,52.4707317 L16.402406,47.7902439 C16.4516625,47.7902439 16.500919,47.7902439 16.5501754,47.7902439 C16.6979449,47.7902439 16.7964578,47.8395122 16.8457143,47.8887805 C16.8949708,47.9873171 16.9442272,48.0858537 16.9442272,48.1843902 C16.9442272,48.1843902 16.9442272,48.2336585 16.9442272,48.2829268 C16.9442272,48.3321951 16.9442272,48.3321951 16.9442272,48.3814634 L16.2053801,52.4707317 Z" id="Shape"></path>
                        <path d="M19.308538,52.4707317 L19.6533333,50.5492683 C19.6533333,50.5 19.6533333,50.4014634 19.7025898,50.3521951 C19.7025898,50.3029268 19.7025898,50.2043902 19.7025898,50.155122 C19.7025898,50.0073171 19.6533333,49.9087805 19.6040769,49.8102439 C19.5548204,49.7117073 19.407051,49.662439 19.2592815,49.662439 C19.1607686,49.662439 19.0622556,49.662439 18.9637427,49.7117073 C18.8652297,49.7609756 18.7667168,49.8102439 18.6682038,49.8595122 C18.5696909,49.9087805 18.5204344,50.0073171 18.4219215,50.1058537 C18.372665,50.2043902 18.3234085,50.3521951 18.274152,50.5 L17.9293567,52.52 L17.338279,52.52 L17.8801003,49.2190244 C17.9293567,49.2190244 17.9786132,49.2190244 18.0278697,49.2190244 C18.274152,49.2190244 18.4219215,49.317561 18.4219215,49.5639024 L18.4219215,49.662439 C18.5696909,49.5146341 18.6682038,49.4160976 18.8652297,49.317561 C19.0622556,49.2190244 19.2592815,49.1697561 19.4563074,49.1697561 C19.6040769,49.1697561 19.7518463,49.2190244 19.8503592,49.2682927 C19.9488722,49.317561 20.0473851,49.3668293 20.1458981,49.4653659 C20.1951546,49.5639024 20.244411,49.662439 20.2936675,49.7609756 C20.342924,49.8595122 20.342924,50.0073171 20.342924,50.1058537 C20.342924,50.2043902 20.342924,50.2536585 20.342924,50.3521951 C20.342924,50.4507317 20.342924,50.5 20.2936675,50.5985366 L19.9488722,52.52 L19.308538,52.52 L19.308538,52.4707317 Z" id="Shape"></path>
                        <path d="M23.6923642,47.7902439 C23.7416207,47.8395122 23.7908772,47.9380488 23.7908772,47.9873171 C23.7908772,48.0365854 23.7908772,48.135122 23.7416207,48.135122 C23.6923642,48.1843902 23.6431078,48.2336585 23.5938513,48.2336585 L23.4953383,48.2829268 C23.3968254,48.0365854 23.150543,47.9380488 22.9042607,47.9380488 C22.8057477,47.9380488 22.7072348,47.9380488 22.6087218,47.9873171 C22.5102089,48.0365854 22.4609524,48.0858537 22.4116959,48.1843902 C22.3624394,48.2829268 22.313183,48.3321951 22.2639265,48.4307317 C22.21467,48.5292683 22.21467,48.6278049 22.1654135,48.7263415 L22.1161571,49.1697561 L23.5938513,49.1697561 L23.4953383,49.662439 L22.0176441,49.662439 L21.5250794,52.5692683 C21.4758229,52.7663415 21.4265664,52.9141463 21.3773099,53.1112195 C21.3280535,53.2590244 21.2295405,53.4068293 21.180284,53.5546341 C21.0817711,53.702439 20.9832581,53.7517073 20.8354887,53.8502439 C20.6877193,53.8995122 20.5399499,53.9487805 20.342924,53.9487805 C20.1951546,53.9487805 20.0966416,53.9487805 19.9488722,53.8995122 C19.8503592,53.8502439 19.7518463,53.8009756 19.7025898,53.7517073 C19.6533333,53.702439 19.6040769,53.6039024 19.6040769,53.5546341 C19.6040769,53.5053659 19.6040769,53.4560976 19.6040769,53.4068293 C19.6040769,53.357561 19.6533333,53.357561 19.6533333,53.3082927 L19.7518463,53.2097561 C19.8011028,53.3082927 19.8996157,53.357561 19.9981287,53.4068293 C20.0966416,53.4560976 20.1951546,53.4560976 20.2936675,53.4560976 C20.3921805,53.4560976 20.4906934,53.4560976 20.5399499,53.4068293 C20.5892063,53.357561 20.6877193,53.3082927 20.7369758,53.2097561 C20.7862322,53.1112195 20.8354887,53.0619512 20.8847452,52.9634146 C20.9340017,52.864878 20.9340017,52.7663415 20.9832581,52.6185366 L21.6235923,48.8741463 C21.6728488,48.6770732 21.7221053,48.48 21.7713617,48.3321951 C21.8206182,48.1843902 21.9191312,48.0365854 22.0176441,47.8887805 C22.1161571,47.7902439 22.2639265,47.6917073 22.4116959,47.5931707 C22.5594653,47.5439024 22.7564912,47.4946341 22.9535171,47.4946341 C23.150543,47.4946341 23.2983124,47.5439024 23.4460819,47.5931707 C23.5445948,47.642439 23.6431078,47.6917073 23.6923642,47.7902439" id="Shape"></path>
                        <path d="M24.086416,52.4214634 C24.0371596,52.4707317 23.9386466,52.4707317 23.8893901,52.52 C23.7908772,52.52 23.7416207,52.5692683 23.6923642,52.5692683 C23.4953383,52.5692683 23.3475689,52.52 23.249056,52.4214634 C23.150543,52.3229268 23.1012865,52.175122 23.1012865,52.0273171 C23.1012865,52.0273171 23.1012865,51.9780488 23.1012865,51.9780488 C23.1012865,51.9287805 23.1012865,51.9287805 23.1012865,51.8795122 L23.5445948,49.2190244 C23.5938513,49.2190244 23.6431078,49.2190244 23.6923642,49.2190244 C23.8401337,49.2190244 23.9386466,49.2682927 23.9879031,49.317561 C24.0371596,49.4160976 24.086416,49.5146341 24.086416,49.6131707 C24.086416,49.6131707 24.086416,49.662439 24.086416,49.7117073 C24.086416,49.7609756 24.086416,49.7609756 24.086416,49.8102439 L23.7416207,51.8795122 C23.7416207,51.9287805 23.7416207,51.9287805 23.7416207,51.9780488 C23.7416207,51.9780488 23.7416207,52.0273171 23.7416207,52.0273171 C23.7416207,52.0765854 23.7416207,52.1258537 23.7908772,52.175122 C23.8401337,52.2243902 23.8893901,52.2243902 23.9386466,52.2243902 C23.9879031,52.2243902 24.0371596,52.2243902 24.086416,52.2243902 L24.086416,52.4214634 Z" id="Shape"></path>
                        <path d="M26.8447786,52.4707317 L27.1895739,50.5492683 C27.1895739,50.5 27.1895739,50.4014634 27.2388304,50.3521951 C27.2388304,50.3029268 27.2388304,50.2043902 27.2388304,50.155122 C27.2388304,50.0073171 27.1895739,49.9087805 27.1403175,49.8102439 C27.091061,49.7117073 26.9432916,49.662439 26.7955221,49.662439 C26.6970092,49.662439 26.5984962,49.662439 26.4999833,49.7117073 C26.4014703,49.7609756 26.3029574,49.8102439 26.2044444,49.8595122 C26.1059315,49.9087805 26.056675,50.0073171 25.9581621,50.1058537 C25.9089056,50.2043902 25.8596491,50.3521951 25.8103926,50.5 L25.4655973,52.52 L24.8745196,52.52 L25.4163409,49.2190244 C25.4655973,49.2190244 25.5148538,49.2190244 25.5641103,49.2190244 C25.8103926,49.2190244 25.9089056,49.317561 25.9089056,49.5639024 L25.9089056,49.662439 C26.056675,49.5146341 26.2044444,49.4160976 26.3522139,49.317561 C26.5492398,49.2190244 26.7462657,49.1697561 26.9432916,49.1697561 C27.091061,49.1697561 27.2388304,49.2190244 27.3373434,49.2682927 C27.4358563,49.317561 27.5343693,49.3668293 27.6328822,49.4653659 C27.6821387,49.5639024 27.7313952,49.662439 27.7806516,49.7609756 C27.8299081,49.8595122 27.8299081,50.0073171 27.8299081,50.1058537 C27.8299081,50.2043902 27.8299081,50.2536585 27.8299081,50.3521951 C27.8299081,50.4507317 27.8299081,50.5 27.7806516,50.5985366 L27.4358563,52.52 L26.8447786,52.52 L26.8447786,52.4707317 Z" id="Shape"></path>
                        <path d="M29.5538847,52.4214634 C29.5046282,52.4707317 29.4061153,52.4707317 29.3568588,52.52 C29.2583459,52.52 29.2090894,52.5692683 29.1598329,52.5692683 C28.962807,52.5692683 28.8150376,52.52 28.7165246,52.4214634 C28.6180117,52.3229268 28.5687552,52.175122 28.5687552,52.0273171 C28.5687552,52.0273171 28.5687552,51.9780488 28.5687552,51.9780488 C28.5687552,51.9287805 28.5687552,51.9287805 28.5687552,51.8795122 L29.0120635,49.2190244 C29.06132,49.2190244 29.1105764,49.2190244 29.1598329,49.2190244 C29.3076023,49.2190244 29.4061153,49.2682927 29.4553718,49.317561 C29.5046282,49.4160976 29.5538847,49.5146341 29.5538847,49.6131707 C29.5538847,49.6131707 29.5538847,49.662439 29.5538847,49.7117073 C29.5538847,49.7609756 29.5538847,49.7609756 29.5538847,49.8102439 L29.2090894,51.8795122 C29.2090894,51.9287805 29.2090894,51.9287805 29.2090894,51.9780488 C29.2090894,51.9780488 29.2090894,52.0273171 29.2090894,52.0273171 C29.2090894,52.0765854 29.2090894,52.1258537 29.2583459,52.175122 C29.3076023,52.2243902 29.3568588,52.2243902 29.4061153,52.2243902 C29.4553718,52.2243902 29.5046282,52.2243902 29.5538847,52.2243902 L29.5538847,52.4214634 Z" id="Shape"></path>
                        <path d="M29.4579838,48.6278049 C29.3587246,48.6278049 29.2594653,48.5785366 29.2098357,48.5292683 C29.1602061,48.48 29.1105764,48.3814634 29.1105764,48.2829268 C29.1105764,48.1843902 29.1602061,48.0365854 29.2098357,47.9873171 C29.2594653,47.8887805 29.4083542,47.8395122 29.5076135,47.8395122 C29.6068727,47.8395122 29.706132,47.8887805 29.7557616,47.9380488 C29.8053913,47.9873171 29.8550209,48.0858537 29.8550209,48.1843902 C29.8550209,48.2829268 29.8053913,48.4307317 29.7557616,48.48 C29.6565024,48.6278049 29.5572431,48.6278049 29.4579838,48.6278049" id="Shape"></path>
                        <path d="M31.4748872,49.1697561 L32.4107602,49.1697561 L32.3122473,49.662439 L31.3763743,49.662439 L31.1300919,51.1404878 C31.1300919,51.2390244 31.0808354,51.337561 31.0808354,51.4360976 C31.0808354,51.5346341 31.0315789,51.682439 31.0808354,51.7317073 C31.0808354,51.8302439 31.1300919,51.9287805 31.1793484,52.0273171 C31.2286048,52.1258537 31.3271178,52.1258537 31.4748872,52.1258537 C31.5734002,52.1258537 31.6719131,52.0765854 31.7211696,52.0273171 C31.8196825,51.9780488 31.868939,51.9287805 31.967452,51.8302439 L32.0659649,51.9287805 C32.1152214,51.9780488 32.1644779,52.0765854 32.1644779,52.1258537 C32.1644779,52.2243902 32.1152214,52.2736585 32.0167084,52.3721951 C31.868939,52.52 31.6226566,52.5692683 31.3763743,52.5692683 C31.0808354,52.5692683 30.8838095,52.4707317 30.7360401,52.3229268 C30.5882707,52.175122 30.5390142,51.9780488 30.5390142,51.682439 C30.5390142,51.6331707 30.5390142,51.6331707 30.5390142,51.5839024 C30.5390142,51.5346341 30.5390142,51.4853659 30.5390142,51.4360976 L31.0808354,48.1843902 C31.1300919,48.1843902 31.1793484,48.1843902 31.2286048,48.1843902 C31.3763743,48.1843902 31.4748872,48.2336585 31.5241437,48.2829268 C31.5734002,48.3814634 31.6226566,48.48 31.6226566,48.5785366 C31.6226566,48.5785366 31.6226566,48.6278049 31.6226566,48.6770732 C31.6226566,48.7263415 31.6226566,48.7263415 31.6226566,48.7756098 L31.4748872,49.1697561 Z" id="Shape"></path>
                        <path d="M33.6421721,50.7463415 C33.839198,50.7463415 33.9869674,50.7463415 34.1839933,50.6970732 C34.3317627,50.6478049 34.4795322,50.5985366 34.5780451,50.5492683 C34.6765581,50.5 34.775071,50.4014634 34.873584,50.3029268 C34.9228404,50.2043902 34.9720969,50.1058537 34.9720969,49.9580488 C34.9720969,49.8595122 34.9228404,49.7609756 34.873584,49.662439 C34.8243275,49.5639024 34.7258145,49.5639024 34.5780451,49.5639024 C34.4302757,49.5639024 34.2825063,49.6131707 34.1839933,49.662439 C34.0854804,49.7117073 33.9377109,49.8102439 33.839198,49.9087805 C33.740685,50.0073171 33.6421721,50.155122 33.5929156,50.3029268 C33.5436591,50.4507317 33.4944027,50.5985366 33.4451462,50.7463415 C33.4944027,50.7463415 33.4944027,50.7463415 33.5436591,50.7463415 L33.6421721,50.7463415 Z M35.1198663,52.2243902 C35.0706099,52.2736585 35.0213534,52.3229268 34.9720969,52.3721951 C34.9228404,52.4214634 34.8243275,52.4707317 34.775071,52.4707317 C34.6765581,52.52 34.5780451,52.52 34.4795322,52.5692683 C34.3810192,52.5692683 34.2332498,52.6185366 34.0854804,52.6185366 C33.8884545,52.6185366 33.740685,52.5692683 33.5929156,52.52 C33.4451462,52.4707317 33.2973768,52.3721951 33.1988638,52.2736585 C33.1003509,52.175122 33.0018379,52.0273171 32.9525815,51.8795122 C32.903325,51.7317073 32.8540685,51.5346341 32.8540685,51.2882927 C32.8540685,50.9926829 32.903325,50.6970732 33.0018379,50.4014634 C33.1003509,50.155122 33.2481203,49.9087805 33.3958897,49.7117073 C33.5436591,49.5146341 33.740685,49.3668293 33.9869674,49.2682927 C34.1839933,49.1697561 34.4302757,49.1204878 34.6765581,49.1204878 C34.9720969,49.1204878 35.2183793,49.2190244 35.3661487,49.3668293 C35.5139181,49.5146341 35.6124311,49.7117073 35.6124311,49.9580488 C35.6124311,50.2043902 35.5631746,50.3521951 35.4646617,50.5492683 C35.3661487,50.6970732 35.2183793,50.844878 35.0213534,50.9434146 C34.8243275,51.0419512 34.6273016,51.0912195 34.4302757,51.1404878 C34.2332498,51.1897561 33.9869674,51.1897561 33.7899415,51.1897561 L33.6421721,51.1897561 C33.5929156,51.1897561 33.5436591,51.1897561 33.4944027,51.1897561 L33.4944027,51.2882927 C33.4944027,51.5839024 33.5436591,51.7809756 33.6914286,51.9287805 C33.839198,52.0765854 33.9869674,52.1258537 34.2332498,52.1258537 C34.4302757,52.1258537 34.5780451,52.0765854 34.7258145,52.0273171 C34.873584,51.9287805 35.0213534,51.8302439 35.1198663,51.682439 L35.2183793,51.7317073 C35.2676358,51.7809756 35.3168922,51.7809756 35.3168922,51.8302439 C35.3661487,51.8795122 35.3661487,51.9287805 35.3661487,51.9780488 C35.2676358,52.0765854 35.2183793,52.1258537 35.1198663,52.2243902 Z" id="Shape"></path>
                        <path d="M41.2769256,52.4707317 L40.685848,52.4707317 L41.0306433,50.3029268 L39.0603843,50.3029268 L38.715589,52.4707317 L38.1245113,52.4707317 L38.9126149,47.7902439 C38.9618713,47.7902439 39.0111278,47.7902439 39.0603843,47.7902439 C39.2081537,47.7902439 39.3066667,47.8395122 39.3559231,47.8887805 C39.4051796,47.9873171 39.4544361,48.0858537 39.4544361,48.1843902 C39.4544361,48.1843902 39.4544361,48.2336585 39.4544361,48.2829268 C39.4544361,48.3321951 39.4544361,48.3321951 39.4544361,48.3814634 L39.2081537,49.8595122 L41.1784127,49.8595122 L41.523208,47.8395122 C41.5724645,47.8395122 41.621721,47.8395122 41.6709774,47.8395122 C41.8187469,47.8395122 41.9172598,47.8887805 41.9665163,47.9380488 C42.0157728,48.0365854 42.0650292,48.135122 42.0650292,48.2336585 C42.0650292,48.2336585 42.0650292,48.2829268 42.0650292,48.3321951 C42.0650292,48.3814634 42.0650292,48.3814634 42.0650292,48.4307317 L41.2769256,52.4707317 Z" id="Shape"></path>
                        <path d="M43.0501587,51.2882927 C43.0501587,51.3868293 43.0501587,51.5346341 43.0994152,51.6331707 C43.0994152,51.7317073 43.1486717,51.8302439 43.1979282,51.9287805 C43.2471846,52.0273171 43.2964411,52.0765854 43.3949541,52.1258537 C43.493467,52.175122 43.5919799,52.175122 43.6904929,52.175122 C43.8382623,52.175122 43.9860317,52.1258537 44.1338012,52.0273171 C44.2815706,51.9287805 44.3800835,51.8302439 44.4785965,51.682439 C44.5771094,51.5346341 44.6263659,51.337561 44.6756224,51.1404878 C44.7248789,50.9434146 44.7741353,50.6970732 44.7741353,50.5 C44.7741353,50.4014634 44.7741353,50.2536585 44.7248789,50.155122 C44.6756224,50.0565854 44.6756224,49.9580488 44.6263659,49.8595122 C44.5771094,49.7609756 44.527853,49.7117073 44.42934,49.662439 C44.3308271,49.6131707 44.2323141,49.6131707 44.1338012,49.6131707 C43.9860317,49.6131707 43.8382623,49.662439 43.6904929,49.7609756 C43.5427235,49.8595122 43.4442105,49.9580488 43.3456976,50.1058537 C43.2471846,50.2536585 43.1979282,50.4507317 43.1486717,50.6478049 C43.0501587,50.7956098 43.0501587,51.0419512 43.0501587,51.2882927 M43.6412364,52.6185366 C43.4442105,52.6185366 43.2471846,52.5692683 43.0994152,52.52 C42.9516458,52.4214634 42.8531328,52.3229268 42.7546199,52.2243902 C42.6561069,52.0765854 42.6068505,51.9780488 42.557594,51.7809756 C42.5083375,51.6331707 42.5083375,51.4360976 42.5083375,51.2882927 C42.5083375,51.0419512 42.557594,50.7463415 42.6068505,50.5 C42.7053634,50.2536585 42.8038764,50.0073171 42.9516458,49.8102439 C43.0994152,49.6131707 43.2964411,49.4653659 43.493467,49.317561 C43.6904929,49.2190244 43.9367753,49.1204878 44.2323141,49.1204878 C44.42934,49.1204878 44.6263659,49.1697561 44.7741353,49.2190244 C44.9219048,49.317561 45.0204177,49.4160976 45.1189307,49.5146341 C45.2174436,49.662439 45.2667001,49.7609756 45.3159566,49.9580488 C45.365213,50.1058537 45.365213,50.2536585 45.365213,50.4507317 C45.365213,50.6970732 45.3159566,50.9926829 45.2667001,51.2390244 C45.2174436,51.4853659 45.0696742,51.7317073 44.9219048,51.9287805 C44.7741353,52.1258537 44.5771094,52.2736585 44.3800835,52.4214634 C44.1830576,52.52 43.8875188,52.6185366 43.6412364,52.6185366" id="Shape"></path>
                        <path d="M46.9906767,49.6131707 C47.0891896,49.5146341 47.2369591,49.3668293 47.3847285,49.2682927 C47.5324979,49.1697561 47.6802673,49.1204878 47.8772932,49.1204878 C48.0250627,49.1204878 48.1235756,49.1697561 48.2220886,49.2190244 C48.3206015,49.2682927 48.369858,49.3668293 48.369858,49.5146341 C48.369858,49.6131707 48.369858,49.662439 48.3206015,49.7117073 C48.271345,49.7609756 48.2220886,49.8102439 48.1728321,49.8595122 L48.0743191,49.9087805 C48.0250627,49.8102439 47.9758062,49.7117073 47.8772932,49.662439 C47.8280368,49.6131707 47.7295238,49.6131707 47.6802673,49.6131707 C47.5817544,49.6131707 47.5324979,49.6131707 47.433985,49.662439 C47.335472,49.7117073 47.2862155,49.7609756 47.1877026,49.8102439 C47.1384461,49.9087805 47.0399332,49.9580488 46.9906767,50.0565854 C46.9414202,50.155122 46.8921637,50.3029268 46.8921637,50.4014634 L46.5473684,52.3721951 L45.9562907,52.3721951 L46.4981119,49.0712195 C46.5473684,49.0712195 46.5966249,49.0712195 46.6458814,49.0712195 C46.8921637,49.0712195 47.0399332,49.1697561 47.0399332,49.4160976 L47.0399332,49.6131707 L46.9906767,49.6131707 Z" id="Shape"></path>
                        <path d="M49.8475522,52.4214634 C49.7982957,52.4707317 49.6997828,52.4707317 49.6505263,52.52 C49.5520134,52.52 49.5027569,52.5692683 49.4535004,52.5692683 C49.2564745,52.5692683 49.1087051,52.52 49.0101921,52.4214634 C48.9116792,52.3229268 48.8624227,52.175122 48.8624227,52.0273171 C48.8624227,52.0273171 48.8624227,51.9780488 48.8624227,51.9780488 C48.8624227,51.9287805 48.8624227,51.9287805 48.8624227,51.8795122 L49.305731,49.2190244 C49.3549875,49.2190244 49.4042439,49.2190244 49.4535004,49.2190244 C49.6012698,49.2190244 49.6997828,49.2682927 49.7490393,49.317561 C49.7982957,49.4160976 49.8475522,49.5146341 49.8475522,49.6131707 C49.8475522,49.6131707 49.8475522,49.662439 49.8475522,49.7117073 C49.8475522,49.7609756 49.8475522,49.7609756 49.8475522,49.8102439 L49.5027569,51.8795122 C49.5027569,51.9287805 49.5027569,51.9287805 49.5027569,51.9780488 C49.5027569,51.9780488 49.5027569,52.0273171 49.5027569,52.0273171 C49.5027569,52.0765854 49.5027569,52.1258537 49.5520134,52.175122 C49.6012698,52.2243902 49.6505263,52.2243902 49.6997828,52.2243902 C49.7490393,52.2243902 49.7982957,52.2243902 49.8475522,52.2243902 L49.8475522,52.4214634 Z" id="Shape"></path>
                        <path d="M49.7023949,48.6278049 C49.6031356,48.6278049 49.5038764,48.5785366 49.4542467,48.5292683 C49.4046171,48.48 49.3549875,48.3814634 49.3549875,48.2829268 C49.3549875,48.1843902 49.4046171,48.0365854 49.4542467,47.9873171 C49.553506,47.8887805 49.6527652,47.8395122 49.7520245,47.8395122 C49.8512838,47.8395122 49.950543,47.8887805 50.0001727,47.9380488 C50.0498023,47.9873171 50.0994319,48.0858537 50.0994319,48.1843902 C50.0994319,48.2829268 50.0498023,48.4307317 50.0001727,48.48 C49.950543,48.6278049 49.8512838,48.6278049 49.7023949,48.6278049" id="Shape"></path>
                        <path d="M50.5863993,52.4707317 L50.6356558,52.0765854 C50.8819382,51.7317073 51.2267335,51.337561 51.5222723,50.8941463 C51.8670677,50.5 52.211863,50.0565854 52.6059148,49.6131707 L50.9804511,49.6131707 C50.9804511,49.4653659 51.0297076,49.3668293 51.0789641,49.2682927 C51.1282206,49.1697561 51.27599,49.1204878 51.4237594,49.1204878 L53.0984795,49.1204878 C53.1969925,49.1204878 53.246249,49.1204878 53.2955054,49.1697561 C53.3447619,49.2190244 53.3447619,49.2682927 53.3447619,49.317561 L53.3447619,49.5146341 C52.9507101,49.9580488 52.6059148,50.3521951 52.2611195,50.7463415 C51.9163241,51.1404878 51.6207853,51.5346341 51.3252464,51.9287805 L52.7044277,51.9287805 C52.8029407,51.9287805 52.9014536,51.9780488 52.9507101,52.0273171 C52.9999666,52.0765854 53.0492231,52.1258537 53.0492231,52.2243902 C53.0492231,52.2736585 53.0492231,52.3721951 52.9999666,52.4214634 L50.5863993,52.4214634 L50.5863993,52.4707317 Z" id="Shape"></path>
                        <path d="M54.4776608,51.2882927 C54.4776608,51.3868293 54.4776608,51.5346341 54.5269173,51.6331707 C54.5269173,51.7317073 54.5761738,51.8302439 54.6254302,51.9287805 C54.6746867,52.0273171 54.7239432,52.0765854 54.8224561,52.1258537 C54.9209691,52.175122 55.019482,52.175122 55.117995,52.175122 C55.2657644,52.175122 55.4135338,52.1258537 55.5613033,52.0273171 C55.7090727,51.9287805 55.8075856,51.8302439 55.9060986,51.682439 C56.0046115,51.5346341 56.053868,51.337561 56.1031245,51.1404878 C56.152381,50.9434146 56.2016374,50.6970732 56.2016374,50.5 C56.2016374,50.4014634 56.2016374,50.2536585 56.152381,50.155122 C56.152381,50.0565854 56.1031245,49.9580488 56.053868,49.8595122 C56.0046115,49.7609756 55.9553551,49.7117073 55.8568421,49.662439 C55.7583292,49.6131707 55.6598162,49.6131707 55.5613033,49.6131707 C55.4135338,49.6131707 55.2657644,49.662439 55.117995,49.7609756 C54.9702256,49.8595122 54.8717126,49.9580488 54.7731997,50.1058537 C54.6746867,50.2536585 54.6254302,50.4507317 54.5761738,50.6478049 C54.4776608,50.7956098 54.4776608,51.0419512 54.4776608,51.2882927 M55.019482,52.6185366 C54.8224561,52.6185366 54.6254302,52.5692683 54.4776608,52.52 C54.3298914,52.4214634 54.2313784,52.3229268 54.1328655,52.2243902 C54.0343525,52.0765854 53.9850961,51.9780488 53.9358396,51.7809756 C53.8865831,51.6331707 53.8865831,51.4360976 53.8865831,51.2882927 C53.8865831,51.0419512 53.9358396,50.7463415 53.9850961,50.5 C54.083609,50.2536585 54.182122,50.0073171 54.3298914,49.8102439 C54.4776608,49.6131707 54.6746867,49.4653659 54.8717126,49.317561 C55.0687385,49.2190244 55.3150209,49.1204878 55.6105597,49.1204878 C55.8075856,49.1204878 56.0046115,49.1697561 56.152381,49.2190244 C56.3001504,49.317561 56.3986633,49.4160976 56.4971763,49.5146341 C56.5956892,49.662439 56.6449457,49.7609756 56.6942022,49.9580488 C56.7434586,50.1058537 56.7434586,50.2536585 56.7434586,50.4507317 C56.7434586,50.6970732 56.6942022,50.9926829 56.6449457,51.2390244 C56.5956892,51.4853659 56.4479198,51.7317073 56.3001504,51.9287805 C56.152381,52.1258537 55.9553551,52.2736585 55.7583292,52.4214634 C55.5613033,52.52 55.3150209,52.6185366 55.019482,52.6185366" id="Shape"></path>
                        <path d="M59.3540518,52.4707317 L59.6988471,50.5492683 C59.6988471,50.5 59.6988471,50.4014634 59.7481036,50.3521951 C59.7481036,50.3029268 59.7481036,50.2043902 59.7481036,50.155122 C59.7481036,50.0073171 59.6988471,49.9087805 59.6495906,49.8102439 C59.6003342,49.7117073 59.4525647,49.662439 59.3047953,49.662439 C59.2062824,49.662439 59.1077694,49.662439 59.0092565,49.7117073 C58.9107435,49.7609756 58.8122306,49.8102439 58.7137176,49.8595122 C58.6152047,49.9087805 58.5659482,50.0073171 58.4674353,50.1058537 C58.4181788,50.2043902 58.3689223,50.3521951 58.3196658,50.5 L57.9748705,52.52 L57.3837928,52.52 L57.925614,49.2190244 C57.9748705,49.2190244 58.024127,49.2190244 58.0733835,49.2190244 C58.3196658,49.2190244 58.4674353,49.317561 58.4674353,49.5639024 L58.4674353,49.662439 C58.5659482,49.5146341 58.7137176,49.4160976 58.9107435,49.317561 C59.1077694,49.2190244 59.3047953,49.1697561 59.5018212,49.1697561 C59.6495906,49.1697561 59.7973601,49.2190244 59.895873,49.2682927 C59.994386,49.317561 60.0928989,49.3668293 60.1914119,49.4653659 C60.2406683,49.5639024 60.2899248,49.662439 60.3391813,49.7609756 C60.3884378,49.8595122 60.3884378,50.0073171 60.3884378,50.1058537 C60.3884378,50.2043902 60.3884378,50.2536585 60.3884378,50.3521951 C60.3884378,50.4507317 60.3884378,50.5 60.3391813,50.5985366 L59.994386,52.52 L59.3540518,52.52 L59.3540518,52.4707317 Z" id="Shape"></path>
                        <path d="M61.9153885,52.6185366 C61.4720802,52.6185366 61.1272849,52.52 60.930259,52.3229268 C60.8810025,52.2736585 60.831746,52.175122 60.831746,52.1258537 C60.831746,52.0273171 60.831746,51.9780488 60.930259,51.9287805 L61.0287719,51.8302439 C61.1272849,51.9287805 61.2750543,52.0273171 61.3735673,52.0765854 C61.5213367,52.1258537 61.6691061,52.175122 61.8168755,52.175122 C61.9153885,52.175122 62.0139014,52.175122 62.1124144,52.1258537 C62.2109273,52.0765854 62.2601838,52.0273171 62.3094403,51.9780488 C62.3586967,51.9287805 62.4079532,51.8795122 62.4079532,51.8302439 C62.4079532,51.7809756 62.4572097,51.7317073 62.4572097,51.6331707 C62.4572097,51.4853659 62.4079532,51.3868293 62.3094403,51.2882927 C62.2109273,51.1897561 62.0631579,51.0912195 61.9153885,50.9926829 C61.8168755,50.9434146 61.767619,50.8941463 61.6691061,50.844878 C61.5705931,50.7956098 61.5213367,50.6970732 61.4720802,50.6478049 C61.4228237,50.5492683 61.3735673,50.5 61.3243108,50.4014634 C61.2750543,50.3029268 61.2750543,50.2043902 61.2750543,50.0565854 C61.2750543,49.9580488 61.2750543,49.8102439 61.3735673,49.7117073 C61.4228237,49.6131707 61.4720802,49.5146341 61.5705931,49.4160976 C61.6691061,49.317561 61.767619,49.2682927 61.9153885,49.2190244 C62.0631579,49.1697561 62.2109273,49.1204878 62.4079532,49.1204878 C62.6049791,49.1204878 62.802005,49.1697561 62.9497744,49.2190244 C63.0975439,49.317561 63.1960568,49.3668293 63.2945698,49.4653659 C63.3438262,49.5146341 63.3438262,49.5639024 63.3438262,49.6131707 C63.3438262,49.662439 63.3438262,49.7117073 63.2945698,49.7609756 C63.2453133,49.8102439 63.2453133,49.8102439 63.1960568,49.8595122 L63.0975439,49.9087805 C62.9990309,49.7609756 62.900518,49.662439 62.802005,49.6131707 C62.7034921,49.5639024 62.5557226,49.5146341 62.4079532,49.5146341 C62.2109273,49.5146341 62.0631579,49.5639024 61.9646449,49.662439 C61.866132,49.7609756 61.8168755,49.8595122 61.8168755,49.9580488 C61.8168755,50.0565854 61.8168755,50.1058537 61.866132,50.155122 C61.9153885,50.2043902 61.9153885,50.2536585 62.0139014,50.3029268 C62.0631579,50.3521951 62.1124144,50.4014634 62.2109273,50.4507317 C62.2601838,50.5 62.3586967,50.5492683 62.4572097,50.5985366 C62.6049791,50.6970732 62.7034921,50.7463415 62.7527485,50.844878 C62.8512615,50.9434146 62.900518,50.9926829 62.9497744,51.0419512 C62.9990309,51.0912195 63.0482874,51.1897561 63.0482874,51.2882927 C63.0482874,51.3868293 63.0975439,51.4853659 63.0975439,51.5839024 C63.0975439,51.7317073 63.0482874,51.8302439 62.9990309,51.9780488 C62.9497744,52.0765854 62.8512615,52.175122 62.7527485,52.2736585 C62.6542356,52.3721951 62.5557226,52.4214634 62.4079532,52.4707317 C62.2601838,52.5692683 62.1124144,52.6185366 61.9153885,52.6185366" id="Shape"></path>
                    </g>
                </g>
            </g>
        </g>
    </g>
</svg>