<?xml version="1.0" encoding="utf-8"?>
<!-- Generator: Adobe Illustrator 23.0.1, SVG Export Plug-In . SVG Version: 6.00 Build 0)  -->
<svg version="1.1" id="Layer_1" xmlns="http://www.w3.org/2000/svg" xmlns:xlink="http://www.w3.org/1999/xlink" x="0px" y="0px"
	 viewBox="0 0 306.18 262.37" style="enable-background:new 0 0 306.18 262.37;" xml:space="preserve">
<style type="text/css">
	.st0{fill:#FFFFFF;}
</style>
<g>
	<path class="st0" d="M153.05,1.34C71.06,1.34,4.3,59.74,1.48,141.04c0.15-0.88,0.46-0.79,1.15-0.77h24.6v-16.98h17.96V62.24h28.51
		v66.12h12.45v-19.65h21.22v10.67h4.98V57.7h18.35l17.57,55.05v16h9.76v-16L175.6,57.7h18.74v62.86h5.07V62.24h26.86v69.25h8.3
		V96.28h17.55v28.57h26.94v15.42h24.4c0.68-0.01,1-0.11,1.14,0.77C301.79,59.74,235.03,1.34,153.05,1.34"/>
	<path class="st0" d="M83.53,245.44c0,1.84-1.34,3.09-3.68,3.09h-4.87v-6.27h4.77c2.34,0,3.77,1.06,3.77,3.12V245.44z M88.4,245.2
		v-0.07c0-2.06-0.66-3.77-1.87-4.99c-1.43-1.43-3.59-2.21-6.36-2.21h-9.98v21.83h4.8v-6.99h3.78l4.68,6.99h5.61l-5.33-7.8
		C86.49,250.94,88.4,248.72,88.4,245.2"/>
</g>
<polygon class="st0" points="102.08,237.93 102.08,259.76 118.7,259.76 118.7,255.49 106.85,255.49 106.85,250.91 117.14,250.91 
	117.14,246.63 106.85,246.63 106.85,242.2 118.55,242.2 118.55,237.93 "/>
<g>
	<path class="st0" d="M142.68,251.34h4.84v3.12c-1.22,0.88-2.78,1.31-4.52,1.31c-3.87,0-6.61-2.93-6.61-6.92v-0.06
		c0-3.71,2.77-6.8,6.27-6.8c2.53,0,4.02,0.81,5.71,2.22l3.02-3.65c-2.28-1.93-4.65-2.99-8.58-2.99c-6.62,0-11.45,5.09-11.45,11.29
		v0.06c0,6.46,4.68,11.23,11.48,11.23c3.99,0,7.08-1.56,9.33-3.46v-9.48h-9.48V251.34z"/>
</g>
<rect x="166.35" y="237.93" class="st0" width="4.81" height="21.84"/>
<polygon class="st0" points="200.62,237.93 200.62,251.37 190.39,237.93 185.96,237.93 185.96,259.76 190.7,259.76 190.7,245.88 
	201.27,259.76 205.36,259.76 205.36,237.93 "/>
<path class="st0" d="M229.59,243.54l2.9,7.08h-5.8L229.59,243.54z M227.44,237.77l-9.36,21.99h4.9l2-4.89h9.23l2,4.89h5.02
	l-9.36-21.99H227.44z"/>
<g>
	<path class="st0" d="M243.87,213.74c-0.17,0.79-0.47,1.49-0.88,2.09c-0.42,0.6-0.98,1.08-1.69,1.44c-0.71,0.36-1.61,0.54-2.69,0.54
		c-0.89,0-1.69-0.21-2.38-0.62c-0.69-0.42-1.31-0.88-1.84-1.38c-0.53-0.5-0.99-0.97-1.39-1.38c-0.4-0.42-0.77-0.62-1.11-0.62
		l10.73-10.69c0.14,0.45,0.3,0.98,0.48,1.61c0.18,0.62,0.34,1.3,0.5,2c0.16,0.71,0.27,1.45,0.37,2.23c0.1,0.78,0.15,1.54,0.15,2.3
		C244.12,212.12,244.04,212.95,243.87,213.74 M141.38,200.03c0.05-0.86,0.17-1.75,0.35-2.67c0.18-0.92,0.45-1.83,0.79-2.74
		c0.35-0.9,0.81-1.71,1.38-2.43c0.57-0.71,1.28-1.28,2.13-1.73c0.85-0.45,1.87-0.67,3.07-0.67c0.66,0,1.23,0.41,1.69,1.21
		c0.45,0.81,0.68,1.84,0.68,3.09c0,0.89-0.35,1.81-1.04,2.75c-0.7,0.95-1.55,1.82-2.57,2.63c-1.02,0.81-2.12,1.47-3.3,1.98
		c-1.18,0.52-2.28,0.77-3.28,0.77C141.29,201.63,141.32,200.9,141.38,200.03 M219.61,169.8c0.6-2.39,1.24-4.59,1.92-6.58
		c0.68-1.98,1.4-3.62,2.13-4.9c0.74-1.28,1.47-1.92,2.19-1.92c0.53,0,0.94,0.11,1.23,0.34c0.29,0.22,0.5,0.5,0.65,0.83
		c0.14,0.33,0.23,0.69,0.27,1.06c0.04,0.38,0.07,0.72,0.07,1.02c0,0.89-0.24,2.03-0.71,3.43c-0.48,1.39-1.07,2.88-1.79,4.48
		c-0.72,1.6-1.54,3.23-2.45,4.89c-0.9,1.66-1.76,3.2-2.61,4.61c-0.44-0.05-0.88-0.1-1.3-0.15c-0.42-0.04-0.83-0.09-1.25-0.15
		C218.46,174.52,219.01,172.19,219.61,169.8 M266.62,206.77c-0.87,0.59-1.74,1.12-2.61,1.58c-1.32,0.71-2.61,1.36-3.86,1.94
		c-1.25,0.58-2.46,1.15-3.61,1.69c-1.16,0.55-2.24,1.15-3.24,1.82c0-1.79-0.06-3.33-0.18-4.64c-0.13-1.31-0.3-2.46-0.5-3.47
		c-0.21-1-0.43-1.89-0.65-2.65c-0.22-0.77-0.44-1.49-0.65-2.17c-0.2-0.68-0.38-1.38-0.5-2.08c-0.13-0.71-0.19-1.5-0.19-2.36
		c0.09-0.3,0.41-0.77,0.98-1.4c0.57-0.63,1.17-1.31,1.82-2.07c0.64-0.75,1.22-1.53,1.75-2.34c0.53-0.81,0.79-1.54,0.79-2.21
		c0-0.33-0.03-0.73-0.08-1.19c-0.05-0.46-0.25-0.9-0.58-1.32c-0.33-0.42-0.86-0.77-1.58-1.07c-0.73-0.29-1.75-0.44-3.09-0.44
		c-0.81,0-1.54,0.12-2.19,0.36c-0.65,0.24-1.25,0.54-1.79,0.92c-0.54,0.38-1.04,0.8-1.48,1.27c-0.44,0.47-0.85,0.96-1.21,1.46
		c-1.78,2.23-3.23,4.08-4.34,5.58c-1.12,1.49-2.06,2.75-2.84,3.78c-0.78,1.03-1.46,1.93-2.03,2.68c-0.58,0.75-1.21,1.49-1.9,2.23
		c-0.7,0.74-1.53,1.55-2.51,2.44c-0.97,0.89-2.24,2.01-3.8,3.34c-0.77,0.56-4.75,3.91-5.51,3.62c-0.77-0.29-1.42-0.77-1.95-1.42
		c-0.53-0.66-0.93-1.5-1.21-2.53c-0.28-1.03-0.42-2.29-0.42-3.79c0-0.59,0.01-1.23,0.02-1.92c0.02-0.69,0.04-1.42,0.06-2.17
		c0.03-0.75,0.06-1.51,0.08-2.27c0.03-0.77,0.05-1.51,0.08-2.24c0.08-1.67,0.18-3.37,0.29-5.09c0.69-0.86,1.45-1.83,2.27-2.9
		c0.82-1.07,1.63-2.17,2.44-3.28h16.03c0.67,0,1.29-0.31,1.85-0.91c0.55-0.61,0.83-1.41,0.83-2.38c0-0.81-0.13-1.47-0.37-2.01
		c-0.25-0.53-0.66-0.81-1.21-0.83c-0.47-0.02-1.07-0.06-1.8-0.08c-0.73-0.03-1.5-0.06-2.34-0.08c-0.84-0.03-1.7-0.07-2.59-0.11
		c-0.89-0.04-1.72-0.08-2.49-0.1c-0.76-0.03-1.44-0.05-2.03-0.06c-0.58-0.01-1-0.03-1.25-0.06c1-1.59,1.95-3.19,2.86-4.8
		c0.9-1.61,1.69-3.21,2.35-4.78c0.67-1.57,1.2-3.12,1.59-4.64c0.39-1.52,0.58-2.95,0.58-4.32c0-1.61-0.19-3.16-0.56-4.65
		c-0.37-1.49-0.92-2.79-1.61-3.91c-0.69-1.11-1.54-2-2.52-2.67c-0.99-0.67-2.09-1-3.28-1c-1.87,0-3.65,0.82-5.35,2.49
		c-1.7,1.66-3.27,3.86-4.7,6.6c-1.43,2.74-2.73,5.87-3.88,9.39c-1.16,3.52-2.11,7.16-2.86,10.92c-0.28,0.05-0.78,0.07-1.53,0.06
		c-0.74-0.01-1.57-0.03-2.5-0.06c-0.93-0.03-1.91-0.04-2.93-0.02c-1.01,0.01-1.94,0.09-2.8,0.23c-0.85,0.14-1.54,0.35-2.09,0.65
		c-0.54,0.29-0.81,0.72-0.81,1.28c0,0.25,0.01,0.55,0.04,0.89c0.03,0.35,0.12,0.69,0.29,1.01c0.17,0.32,0.44,0.6,0.79,0.84
		c0.36,0.24,0.88,0.39,1.55,0.48c1.5,0.17,2.66,0.31,3.44,0.41c0.8,0.12,1.45,0.22,1.96,0.31c0.52,0.1,1,0.2,1.46,0.29
		c0.46,0.1,1.1,0.2,1.94,0.31c-0.25,1.87-0.45,3.74-0.59,5.63c-0.14,1.9-0.21,3.68-0.21,5.35c0,3.72,0.22,7.1,0.63,10.17
		c-1.4,1.41-2.76,2.71-4.06,3.85c-0.64,0.56-1.29,1.1-1.94,1.63c-0.65,0.53-1.29,0.99-1.92,1.4c-0.63,0.4-1.21,0.73-1.76,0.98
		c-0.54,0.25-1.02,0.38-1.44,0.38c-0.92,0-1.59-0.55-2.03-1.67c-0.43-1.11-0.65-2.53-0.65-4.26c0-1.03,0.07-2.16,0.19-3.38
		c0.12-1.23,0.28-2.46,0.48-3.72c0.19-1.25,0.41-2.48,0.65-3.67c0.24-1.2,0.45-2.3,0.65-3.3c0.19-1,0.35-1.86,0.48-2.59
		c0.13-0.72,0.19-1.24,0.19-1.54c0-2.06-0.42-3.68-1.24-4.84c-0.82-1.17-1.93-1.75-3.32-1.75c-1.39,0-2.66,0.28-3.8,0.84
		c-1.14,0.55-2.16,1.59-3.05,3.09c-0.19,0.34-0.49,0.85-0.88,1.55c-0.39,0.7-0.82,1.5-1.29,2.4c-0.47,0.91-0.98,1.85-1.53,2.84
		c-0.54,0.99-1.05,1.93-1.52,2.82c-0.48,0.89-0.89,1.68-1.25,2.37c-0.36,0.68-0.63,1.17-0.79,1.48h-0.84c0-0.19,0.04-0.58,0.12-1.15
		c0.08-0.57,0.19-1.24,0.31-2c0.13-0.77,0.26-1.6,0.4-2.5c0.14-0.91,0.27-1.78,0.39-2.63c0.13-0.85,0.23-1.63,0.31-2.34
		c0.09-0.71,0.13-1.28,0.13-1.69c0-1.53-0.3-2.75-0.88-3.67c-0.59-0.92-1.63-1.38-3.14-1.38c-1.5,0-2.69,0.43-3.57,1.29
		c-0.88,0.86-1.47,1.93-1.78,3.21c-0.39,1.65-0.8,3.62-1.21,5.93c-0.41,2.31-0.79,4.71-1.13,7.2c-0.18,1.3-0.29,2.57-0.44,3.85
		l-0.39-0.41c-1.08,1.06-2.41,2.18-3.97,3.36c-1.56,1.18-3.21,2.28-4.97,3.28c-1.75,1-3.55,1.83-5.41,2.5
		c-1.85,0.67-3.61,1.01-5.28,1.01c-0.53,0-1.03-0.06-1.48-0.17c-0.46-0.11-0.9-0.31-1.31-0.59c-0.42-0.28-0.83-0.67-1.24-1.17
		c-0.4-0.5-0.81-1.13-1.23-1.88c2.42-0.67,4.67-1.6,6.75-2.8c2.07-1.2,3.86-2.56,5.36-4.09c1.5-1.53,2.68-3.16,3.53-4.89
		c0.85-1.72,1.28-3.45,1.28-5.18c0-1.58-0.28-3.02-0.84-4.3c-0.56-1.28-1.33-2.37-2.32-3.28c-0.99-0.91-2.15-1.61-3.49-2.12
		c-1.34-0.5-2.78-0.75-4.34-0.75c-1.92,0-3.67,0.34-5.24,1.02c-1.57,0.68-2.99,1.6-4.26,2.76c-1.26,1.15-2.37,2.49-3.32,4.01
		c-0.94,1.51-1.73,3.11-2.36,4.78c-0.63,1.67-1.09,3.37-1.4,5.12c-0.28,1.55-0.41,3.01-0.44,4.42c-0.23,0.13-0.46,0.28-0.68,0.4
		c-0.97,0.55-2.01,1.05-3.11,1.48c-1.1,0.44-2.07,0.65-2.9,0.65c-1.14,0-2.08-0.15-2.8-0.46c-0.72-0.31-1.29-0.71-1.71-1.23
		c-0.42-0.51-0.71-1.09-0.88-1.73c-0.17-0.64-0.25-1.29-0.25-1.96c0-0.65,0.05-1.26,0.14-1.86c0.1-0.6,0.22-1.14,0.36-1.61
		c0.14-0.53,0.31-1.04,0.5-1.54c0.61-1.36,1.18-2.55,1.69-3.55c0.51-1,0.96-1.91,1.33-2.73c0.38-0.83,0.67-1.58,0.88-2.28
		c0.21-0.69,0.32-1.43,0.32-2.21c0-1.03-0.49-1.88-1.47-2.53c-0.97-0.66-2.27-0.98-3.89-0.98c-0.61,0-1.19,0.08-1.73,0.25
		c-0.54,0.16-1.04,0.38-1.48,0.64c-0.44,0.27-0.8,0.58-1.08,0.94c-0.28,0.36-0.46,0.74-0.54,1.13l-11.79,24.94l-3.04-25.11
		c-0.03-0.72-0.3-1.37-0.82-1.92c-0.51-0.56-1.24-0.84-2.19-0.84c-0.14,0-0.27,0.01-0.39,0.02c-0.13,0.01-0.26,0.03-0.4,0.06
		l-2.79,0.79c-0.89,0.14-1.83,0.99-1.74,2.61c0.6,9.96,1.4,17.17,2.23,22.4c-4.79,2.15-10.93,4.73-12.19,5.31
		c-2.05,0.93-4.15,1.74-6.31,2.42c-2.16,0.69-4.32,1.22-6.49,1.61c-2.17,0.39-4.25,0.58-6.22,0.58c-1.65,0-3.17-0.18-4.6-0.54
		c-1.42-0.36-2.65-0.97-3.7-1.82c-1.04-0.85-1.87-1.97-2.46-3.36c-0.6-1.39-0.9-3.13-0.9-5.22c0-2.2,0.52-4.13,1.57-5.78
		c1.05-1.66,2.42-3.05,4.11-4.17c1.7-1.13,3.62-1.98,5.76-2.55c2.14-0.57,4.33-0.85,6.55-0.85c0.97,0,2,0.04,3.07,0.13
		c1.07,0.08,1.96,0.12,2.69,0.12c1.7,0,2.84-0.36,3.43-1.06c0.58-0.71,0.88-1.84,0.88-3.4c0-0.56-0.03-1.14-0.08-1.74
		c-0.06-0.6-0.11-1.18-0.17-1.77c-0.22-0.92-0.69-1.68-1.38-2.3c-0.7-0.61-1.55-1.13-2.57-1.56c-1.02-0.43-2.13-0.81-3.34-1.15
		c-1.21-0.34-2.45-0.68-3.7-1.04c-1.25-0.36-2.46-0.77-3.63-1.23c-1.17-0.46-2.21-1.05-3.11-1.78c-0.9-0.72-1.63-1.6-2.17-2.63
		c-0.54-1.03-0.81-2.29-0.81-3.79c0-1.84,0.38-3.39,1.15-4.64c0.76-1.25,1.79-2.26,3.09-3.02c1.29-0.77,2.79-1.32,4.49-1.65
		c1.7-0.33,3.48-0.5,5.35-0.5c2,0,4.04,0.16,6.1,0.48c2.06,0.32,4,0.73,5.83,1.23c1.82,0.5,3.46,1.06,4.9,1.67
		c1.45,0.61,2.55,1.22,3.3,1.84c-0.7,2.17-1.19,3.98-1.48,5.43c-0.29,1.45-0.44,2.63-0.44,3.55c0,1.03,0.29,1.54,0.88,1.54
		c0.7,0,1.56-0.23,2.61-0.69c1.05-0.46,2.04-1.07,2.98-1.84c0.95-0.77,1.76-1.63,2.44-2.61c0.68-0.97,1.02-1.96,1.02-2.96
		c0-2.84-0.74-5.32-2.21-7.45c-1.48-2.13-3.42-3.91-5.85-5.33c-2.42-1.42-5.19-2.49-8.31-3.19c-3.11-0.71-6.3-1.07-9.56-1.07
		c-2.25,0-4.49,0.17-6.7,0.52c-2.21,0.35-4.33,0.87-6.35,1.55c-2.02,0.69-3.89,1.54-5.62,2.57c-1.73,1.03-3.23,2.24-4.49,3.61
		c-1.26,1.38-2.26,2.93-2.99,4.66c-0.72,1.73-1.08,3.63-1.08,5.72c0,2.23,0.37,4.33,1.13,6.33c0.75,1.99,1.88,3.73,3.38,5.22
		c1.5,1.49,3.4,2.67,5.68,3.55c2.29,0.88,4.96,1.31,8.02,1.31c-4.65,0.11-8.64,0.78-11.96,2.01c-3.33,1.22-6.05,2.84-8.18,4.84
		c-2.13,2-3.7,4.3-4.72,6.89c-1.02,2.59-1.53,5.29-1.53,8.1c0,3.31,0.63,6.17,1.9,8.58c1.26,2.41,2.98,4.41,5.16,5.97
		c2.96,2.11,5.73,3.44,7.6,3.51c2.99,0.11,5.98,1.15,9.27,1.15c2.98,0,6.05-0.31,9.23-0.92c3.17-0.61,6.3-1.52,9.38-2.74
		c2.05-0.8,8.93-3.99,14.24-6.72c0.91,3.07,1.68,4.15,2.04,4.48c0.89,0.82,2.14,1.23,3.76,1.23c0.98,0,2.01-0.46,3.11-1.36
		c1.1-0.91,2.2-2.06,3.3-3.49c1.1-1.42,2.17-3,3.19-4.76c1.03-1.76,1.95-3.47,2.76-5.14c0.03,1.06,0.27,2.08,0.73,3.05
		c0.46,0.98,1.1,1.85,1.92,2.63c0.82,0.78,1.82,1.4,3.01,1.86c1.18,0.46,2.53,0.69,4.03,0.69c1.78,0,3.65-0.35,5.61-1.04
		c1.52-0.54,3-1.22,4.44-2.04c0.61,1.43,1.38,2.73,2.34,3.9c1.31,1.6,2.94,2.88,4.91,3.82c1.96,0.95,4.25,1.42,6.87,1.42
		c1.67,0,3.32-0.19,4.94-0.57c1.63-0.37,3.2-0.88,4.72-1.5c1.52-0.62,2.96-1.34,4.34-2.15c1.38-0.81,2.67-1.63,3.86-2.46
		c0.71-0.51,1.41-1.03,2.1-1.56c0.01,0.94,0.06,1.86,0.17,2.75c0.12,1.04,0.38,1.98,0.75,2.8c0.38,0.83,0.92,1.48,1.61,1.96
		c0.69,0.49,1.62,0.73,2.76,0.73c0.92,0,1.73-0.21,2.42-0.63c0.7-0.42,1.32-1.2,1.88-2.34l10.94-21.71h0.67
		c-0.33,2.23-0.61,4.3-0.84,6.24c-0.22,1.93-0.33,3.73-0.33,5.41c0,4.26,0.52,7.5,1.57,9.71c1.04,2.22,2.33,3.33,3.86,3.33
		c1.53,0,2.99-0.22,4.39-0.65c1.39-0.43,2.73-0.99,4.01-1.67c1.27-0.69,2.51-1.46,3.69-2.32c1.19-0.86,2.35-1.72,3.49-2.59
		l2.81-1.78c0.2,0.53,0.4,1.06,0.63,1.55c1.08,2.41,2.43,4.25,4.05,5.53c1.61,1.28,3.48,1.92,5.59,1.92c1.03,0,2.17-0.19,3.45-0.59
		c1.27-0.39,2.79-0.82,4.34-1.75c0.13,0.3,0.29,0.59,0.47,0.87c0.66,1.06,1.54,1.91,2.6,2.57c1.08,0.66,2.32,1.14,3.74,1.44
		c1.42,0.3,2.95,0.46,4.6,0.46c2.28,0,4.69-0.26,7.24-0.77c2.55-0.51,5.07-1.22,7.56-2.1c2.49-0.89,4.87-1.93,7.14-3.09
		c1.39-0.72,2.68-1.47,3.87-2.25c1.34-0.88,2.11-2.41,2.11-4.01l-0.03-5.13C268.01,206.8,267.21,206.38,266.62,206.77"/>
</g>
</svg>
